<?xml version="1.0" encoding="UTF-8"?>
<svg version="1.1" xmlns="http://www.w3.org/2000/svg" width="928" height="1265">
<path d="M0 0 C1.00160156 0.56976563 2.00320313 1.13953125 3.03515625 1.7265625 C3.61740967 2.0474585 4.19966309 2.36835449 4.79956055 2.69897461 C6.91973014 3.88304201 9.00737944 5.11550679 11.09765625 6.3515625 C12.88615061 7.38770005 14.67525355 8.42278756 16.46484375 9.45703125 C20.54561077 11.82452522 24.61461269 14.21114878 28.6796875 16.60546875 C34.93672204 20.27706197 41.25704421 23.82679538 47.59765625 27.3515625 C55.81988698 31.92685151 63.98346025 36.58730663 72.09765625 41.3515625 C81.34638097 46.78156687 90.66946631 52.06297629 100.03881836 57.28173828 C109.45427227 62.53190245 118.78886663 67.91496308 128.09765625 73.3515625 C126.82315808 77.17505702 125.61689161 77.4878623 122.15625 79.43359375 C120.58689697 80.32606812 120.58689697 80.32606812 118.98583984 81.23657227 C117.84711426 81.87264404 116.70838867 82.50871582 115.53515625 83.1640625 C114.35048489 83.83481633 113.16640999 84.50662461 111.98291016 85.17944336 C109.54521392 86.56481799 107.10551261 87.9465603 104.66455078 89.32617188 C99.40481012 92.30544697 94.18891367 95.35948952 88.97265625 98.4140625 C86.99096263 99.57174677 85.00919171 100.72929872 83.02734375 101.88671875 C82.04991211 102.45793457 81.07248047 103.02915039 80.06542969 103.61767578 C75.07774668 106.5316709 70.0875692 109.44138818 65.09765625 112.3515625 C63.09764445 113.51820893 61.09764444 114.68487559 59.09765625 115.8515625 C47.09765625 122.8515625 47.09765625 122.8515625 44.09301758 124.60424805 C42.10845617 125.76192235 40.12391811 126.91963669 38.1394043 128.07739258 C32.9033923 131.13198419 27.66688454 134.18572181 22.4296875 137.23828125 C21.33849609 137.87443359 20.24730469 138.51058594 19.12304688 139.16601562 C17.0320505 140.38502202 14.94091209 141.60378485 12.84960938 142.82226562 C11.90666016 143.37205078 10.96371094 143.92183594 9.9921875 144.48828125 C9.16565674 144.96998779 8.33912598 145.45169434 7.48754883 145.94799805 C6.69888428 146.41117432 5.91021973 146.87435059 5.09765625 147.3515625 C4.23654897 147.75061955 3.37544168 148.14967661 2.48824024 148.5608263 C-0.1609302 150.14488943 -0.1609302 150.14488943 -0.53320026 153.06331158 C-0.53596564 154.16669778 -0.53873102 155.27008398 -0.5415802 156.40690613 C-0.55686768 157.67315323 -0.57215515 158.93940033 -0.58790588 160.24401855 C-0.57965346 161.64990512 -0.57092467 163.05578896 -0.56176758 164.46166992 C-0.5702182 165.93993992 -0.58086112 167.41819879 -0.59353638 168.8964386 C-0.62174335 172.91281633 -0.61920061 176.92866113 -0.61124253 180.94510818 C-0.60812284 185.14124586 -0.63313597 189.33721218 -0.65519714 193.53327942 C-0.69268949 201.48055305 -0.70478819 209.42765555 -0.70782155 217.37500888 C-0.71250677 226.42214737 -0.74541278 235.46911383 -0.7807194 244.51617658 C-0.85271899 263.1279553 -0.88918104 281.73965388 -0.90234375 300.3515625 C-2.78784919 299.41930513 -4.67212922 298.48456917 -6.5559082 297.54882812 C-7.6053511 297.02857056 -8.65479401 296.50831299 -9.73603821 295.97229004 C-14.63878142 293.46273724 -19.35729553 290.66533607 -24.08984375 287.8515625 C-32.47124757 282.91327306 -40.90004173 278.07861596 -49.40234375 273.3515625 C-57.58442418 268.79918884 -65.70552077 264.15913415 -73.77734375 259.4140625 C-82.39615807 254.34878797 -91.08964592 249.43469212 -99.83984375 244.6015625 C-107.57835423 240.3203682 -115.31455968 236.03907838 -122.96484375 231.6015625 C-123.65505615 231.20743164 -124.34526855 230.81330078 -125.05639648 230.40722656 C-128.15087781 228.5935111 -129.87787112 227.38827144 -131.90234375 224.3515625 C-132.14843941 221.63981342 -132.14843941 221.63981342 -132.14285278 218.29621887 C-132.14560211 217.02997177 -132.14835144 215.76372467 -132.15118408 214.45910645 C-132.14410578 213.05322171 -132.13683616 211.64733793 -132.12939453 210.24145508 C-132.12883048 208.76319893 -132.12914687 207.28494222 -132.13027954 205.8066864 C-132.13085428 201.7904143 -132.11908048 197.77426122 -132.10513163 193.75801682 C-132.09264436 189.56196585 -132.09145535 185.36591227 -132.08908081 181.16984558 C-132.08286014 173.22257606 -132.0664414 165.27536144 -132.04638183 157.32811612 C-132.02404108 148.28106799 -132.01303399 139.23401726 -132.00299096 130.18694842 C-131.98207567 111.57512196 -131.9468883 92.96334664 -131.90234375 74.3515625 C-131.26288315 73.99146591 -130.62342255 73.63136932 -129.96458435 73.26036072 C-127.0044305 71.59261369 -124.0451815 69.92326714 -121.0859375 68.25390625 C-119.57791565 67.40475647 -119.57791565 67.40475647 -118.03942871 66.53845215 C-111.30364898 62.73680351 -104.61668704 58.86065863 -97.96484375 54.9140625 C-96.94793457 54.31118408 -95.93102539 53.70830566 -94.88330078 53.0871582 C-94.08778809 52.61366943 -93.29227539 52.14018066 -92.47265625 51.65234375 C-86.77909534 48.27210532 -81.06191544 44.9332521 -75.33984375 41.6015625 C-66.3517624 36.36666508 -57.37396869 31.11458638 -48.40234375 25.8515625 C-39.11611314 20.40472296 -29.8259792 14.9647095 -20.52734375 9.5390625 C-19.55345703 8.97058594 -18.57957031 8.40210938 -17.57617188 7.81640625 C-15.80092613 6.78116032 -14.02228658 5.75170086 -12.23950195 4.72949219 C-10.76680146 3.86122502 -9.31539936 2.95468651 -7.89916992 1.99707031 C-4.94057624 0.04539127 -3.53423294 -0.78961328 0 0 Z " fill="#E74F3F" transform="translate(368.90234375,285.6484375)"/>
<path d="M0 0 C0.51508041 19.59248764 0.90241249 39.18359358 1.13986778 58.78145885 C1.25308367 67.88257478 1.40724343 76.97947364 1.65966797 86.07788086 C1.8797189 94.01322966 2.02104615 101.94552547 2.06994689 109.88384038 C2.09852298 114.08498483 2.1650294 118.27740131 2.32606125 122.47572899 C3.26692965 147.97100294 3.26692965 147.97100294 -2.15985107 154.6636734 C-7.3722679 159.02817873 -13.09948724 161.70612462 -19.44741917 164.02957535 C-22.74363896 165.28271214 -25.51073442 166.92074581 -28.484375 168.8046875 C-30.23913148 169.82889954 -31.9943307 170.85235347 -33.75 171.875 C-34.73057373 172.44686035 -35.71114746 173.0187207 -36.72143555 173.60791016 C-44.07060386 177.88896779 -51.44005003 182.13420528 -58.8125 186.375 C-67.70893211 191.49294 -76.556324 196.68680762 -85.375 201.9375 C-95.03760002 207.68568647 -104.74457252 213.34865419 -114.5 218.9375 C-115.11139832 219.28892059 -115.72279663 219.64034119 -116.35272217 220.00241089 C-118.07719393 220.99286159 -119.80416599 221.97895518 -121.53125 222.96484375 C-122.51673828 223.5280835 -123.50222656 224.09132324 -124.51757812 224.67163086 C-127 226 -127 226 -130 227 C-132.25463867 226.05053711 -132.25463867 226.05053711 -134.91796875 224.52734375 C-135.91248047 223.96466797 -136.90699219 223.40199219 -137.93164062 222.82226562 C-139.00607422 222.20029297 -140.08050781 221.57832031 -141.1875 220.9375 C-142.30447266 220.30134766 -143.42144531 219.66519531 -144.57226562 219.00976562 C-153.07556743 214.15278682 -161.52997624 209.21055879 -169.9753418 204.25366211 C-177.10128431 200.07899079 -184.28366079 196.01611299 -191.5 192 C-200.76268745 186.84438039 -209.94386691 181.56575581 -219.0859375 176.19946289 C-227.11978956 171.49113144 -235.2127218 166.89381293 -243.34033203 162.34936523 C-258.60752938 153.78494125 -258.60752938 153.78494125 -260 151 C-260.09395006 149.0234625 -260.12190624 147.04367929 -260.12025452 145.06491089 C-260.12162918 143.80003845 -260.12300385 142.53516602 -260.12442017 141.23196411 C-260.12088078 139.8224485 -260.11724597 138.41293312 -260.11352539 137.00341797 C-260.11324344 135.52530926 -260.1134014 134.04720042 -260.1139679 132.5690918 C-260.11425558 128.5486651 -260.10836351 124.52826805 -260.10139394 120.50784826 C-260.0951556 116.30911756 -260.09455622 112.11038623 -260.09336853 107.91165161 C-260.09025664 99.95728538 -260.08204515 92.00293285 -260.07201904 84.04857266 C-260.06085351 74.99428688 -260.05534634 65.94000047 -260.05032361 56.88570952 C-260.03986243 38.25713191 -260.02226572 19.62856705 -260 1 C-258.23635617 1.96170012 -256.47274687 2.92346359 -254.70915222 3.88525391 C-253.7270386 4.42082916 -252.74492498 4.95640442 -251.73305035 5.50820923 C-236.67157835 13.72926705 -221.71393195 22.10337247 -206.92114258 30.79882812 C-199.83057985 34.95784521 -192.68292106 39.00286325 -185.5 43 C-177.11735462 47.66771347 -168.78474225 52.41053509 -160.5 57.25 C-159.50887207 57.82693604 -158.51774414 58.40387207 -157.49658203 58.99829102 C-152.94014976 61.65893422 -148.41000223 64.34957709 -143.9296875 67.13671875 C-143.15431641 67.61270508 -142.37894531 68.08869141 -141.58007812 68.57910156 C-140.16092987 69.45334214 -138.74994217 70.34104505 -137.34960938 71.24511719 C-134.44836522 73.02276678 -132.5745362 74.04172309 -129.13232422 73.79174805 C-125.76277347 72.94003697 -123.38492027 71.73623545 -120.421875 69.9296875 C-119.35686768 69.28821777 -118.29186035 68.64674805 -117.19458008 67.98583984 C-116.35390488 67.47062775 -116.35390488 67.47062775 -115.49624634 66.94500732 C-113.10417528 65.4792728 -110.69958877 64.03466285 -108.29548645 62.58877563 C-107.0479503 61.83831753 -105.80103794 61.08682156 -104.55473328 60.33432007 C-98.35632199 56.59585835 -92.09114743 52.97687073 -85.8125 49.375 C-74.50416231 42.873344 -63.22975874 36.31544588 -51.96777344 29.73388672 C-45.99735353 26.24573912 -40.02398652 22.76263652 -34.05004883 19.28051758 C-28.75989072 16.19630086 -23.47337899 13.10602971 -18.19140625 10.0078125 C-17.08216797 9.358125 -15.97292969 8.7084375 -14.83007812 8.0390625 C-12.68581704 6.78300998 -10.54255298 5.52525351 -8.40039062 4.265625 C-7.44455078 3.70617187 -6.48871094 3.14671875 -5.50390625 2.5703125 C-4.23268921 1.82418701 -4.23268921 1.82418701 -2.93579102 1.06298828 C-1 0 -1 0 0 0 Z " fill="#E74F3F" transform="translate(644,442)"/>
<path d="M0 0 C2.72764127 1.40323142 5.4372646 2.81621197 8.11914062 4.30566406 C9.19760254 4.90386963 10.27606445 5.5020752 11.38720703 6.1184082 C12.55188797 6.76913558 13.71643533 7.42010209 14.88085938 8.07128906 C15.47727234 8.40353485 16.0736853 8.73578064 16.68817139 9.07809448 C26.07643581 14.30877033 35.38048431 19.67321964 44.64575195 25.11914062 C51.73669557 29.27866208 58.88484806 33.32401261 66.06835938 37.32128906 C75.32734948 42.47476925 84.50473331 47.75143484 93.64331055 53.11523438 C101.82824551 57.91177863 110.07403338 62.59476834 118.34814453 67.2355957 C119.25226074 67.74340576 120.15637695 68.25121582 121.08789062 68.77441406 C121.88300049 69.21946289 122.67811035 69.66451172 123.49731445 70.12304688 C125.22711009 71.12385284 126.90554782 72.21274802 128.56835938 73.32128906 C128.96708679 75.93563843 128.96708679 75.93563843 129.00073242 79.31884766 C129.02052155 80.59764801 129.04031067 81.87644836 129.06069946 83.19400024 C129.06750651 84.61924073 129.07395391 86.04448298 129.08007812 87.46972656 C129.09705969 88.96440006 129.11526719 90.45906007 129.13461304 91.95370483 C129.18316269 96.01970291 129.21253165 100.08564095 129.23811722 104.15184021 C129.26174678 107.54061749 129.29637538 110.9292449 129.33103466 114.3179245 C129.70672746 151.31735388 129.67324546 188.32052156 129.56835938 225.32128906 C128.79150787 225.76375473 128.01465637 226.2062204 127.21426392 226.66209412 C124.26030199 228.34528199 121.30692756 230.02949233 118.35391235 231.71434021 C117.08920366 232.43566102 115.82427917 233.15660365 114.55911255 233.87712097 C105.6347884 238.96002065 96.76709506 244.1280179 87.94335938 249.38378906 C74.88851312 257.15323367 61.74147587 264.75451168 48.56835938 272.32128906 C44.15052918 274.86093861 39.73389057 277.40264453 35.31835938 279.94628906 C34.25359375 280.55939941 33.18882812 281.17250977 32.09179688 281.80419922 C23.73957959 286.62308101 15.43241316 291.5156842 7.15527344 296.46240234 C5.87281738 297.22593018 5.87281738 297.22593018 4.56445312 298.00488281 C3.81349365 298.45404053 3.06253418 298.90319824 2.28881836 299.3659668 C0.56835938 300.32128906 0.56835938 300.32128906 -0.43164062 300.32128906 C-1.2752056 265.76224919 -1.65765051 231.20079763 -1.99414062 196.63378906 C-2.00524242 195.49362209 -2.01634422 194.35345512 -2.02778244 193.17873764 C-2.16650204 178.89295928 -2.30098647 164.60714337 -2.43164062 150.32128906 C-3.18703629 149.90322495 -3.94243195 149.48516083 -4.72071838 149.0544281 C-7.58487762 147.46850744 -10.44840334 145.88145378 -13.3115387 144.29368591 C-14.53926193 143.61313248 -15.76721969 142.93300192 -16.99543762 142.25334167 C-25.17707001 137.72538615 -33.30387283 133.11716943 -41.36914062 128.38378906 C-42.39566742 127.78151489 -43.42219421 127.17924072 -44.47982788 126.55871582 C-45.40623077 126.01501343 -46.33263367 125.47131104 -47.28710938 124.91113281 C-53.89131991 121.04168668 -60.53318379 117.23897663 -67.18164062 113.44628906 C-67.76414581 113.11383179 -68.346651 112.78137451 -68.94680786 112.43884277 C-74.31130205 109.37733243 -79.67775768 106.31927179 -85.04589844 103.26416016 C-93.18367185 98.63247468 -101.31387671 93.98799423 -109.43164062 89.32128906 C-111.09598145 88.36536865 -111.09598145 88.36536865 -112.79394531 87.39013672 C-115.92844612 85.58442207 -119.05619724 83.76762567 -122.18164062 81.94628906 C-123.12313965 81.40464111 -124.06463867 80.86299316 -125.03466797 80.30493164 C-125.8823877 79.80759521 -126.73010742 79.31025879 -127.60351562 78.79785156 C-128.34698242 78.36553223 -129.09044922 77.93321289 -129.85644531 77.48779297 C-130.37625977 77.10284668 -130.89607422 76.71790039 -131.43164062 76.32128906 C-131.43164062 75.66128906 -131.43164062 75.00128906 -131.43164062 74.32128906 C-130.72483154 73.92039062 -130.01802246 73.51949219 -129.28979492 73.10644531 C-116.10445959 65.6198656 -102.95621543 58.08508584 -89.93164062 50.32128906 C-80.75408385 44.8522965 -71.52905936 39.47994652 -62.24414062 34.19628906 C-53.4917474 29.21487538 -44.7555888 24.2081755 -36.05664062 19.13378906 C-35.09048828 18.57288574 -34.12433594 18.01198242 -33.12890625 17.43408203 C-28.11916564 14.51623749 -23.15204385 11.54428264 -18.22460938 8.48925781 C-17.22026855 7.87397217 -16.21592773 7.25868652 -15.18115234 6.62475586 C-13.26831174 5.45017951 -11.36439915 4.26089731 -9.47119141 3.05493164 C-8.61895996 2.53439209 -7.76672852 2.01385254 -6.88867188 1.47753906 C-6.14593018 1.01154297 -5.40318848 0.54554688 -4.63793945 0.06542969 C-2.43164062 -0.67871094 -2.43164062 -0.67871094 0 0 Z " fill="#E74F3F" transform="translate(514.431640625,198.6787109375)"/>
<path d="M0 0 C288.42 0 576.84 0 874 0 C874 403.59 874 807.18 874 1223 C585.58 1223 297.16 1223 0 1223 C0 819.41 0 415.82 0 0 Z M8 7 C8 405.97 8 804.94 8 1216 C291.47 1216 574.94 1216 867 1216 C867 817.03 867 418.06 867 7 C583.53 7 300.06 7 8 7 Z " fill="#EA6558" transform="translate(27,23)"/>
<path d="M0 0 C21.12 0 42.24 0 64 0 C63.67 2.97 63.34 5.94 63 9 C45.18 9 27.36 9 9 9 C9 16.92 9 24.84 9 33 C24.84 33 40.68 33 57 33 C57 35.64 57 38.28 57 41 C56 42 56 42 54.09544373 42.12025452 C53.26271439 42.11803391 52.42998505 42.11581329 51.57202148 42.11352539 C50.63112167 42.11344986 49.69022186 42.11337433 48.72080994 42.11329651 C47.69790359 42.10813522 46.67499725 42.10297394 45.62109375 42.09765625 C44.57929459 42.0962413 43.53749542 42.09482635 42.46412659 42.09336853 C39.12188906 42.0877508 35.77971743 42.0751953 32.4375 42.0625 C30.17773534 42.05748728 27.91796963 42.05292398 25.65820312 42.04882812 C20.10542266 42.03862456 14.55278548 42.01905264 9 42 C9 49.92 9 57.84 9 66 C27.15 66 45.3 66 64 66 C63.67 68.97 63.34 71.94 63 75 C42.21 75 21.42 75 0 75 C0 50.25 0 25.5 0 0 Z " fill="#EB6E61" transform="translate(377,867)"/>
<path d="M0 0 C13.6434375 -0.12375 13.6434375 -0.12375 27.5625 -0.25 C31.85229858 -0.30462402 31.85229858 -0.30462402 36.22875977 -0.36035156 C38.50796763 -0.3720394 40.78718387 -0.382231 43.06640625 -0.390625 C44.82639954 -0.4213208 44.82639954 -0.4213208 46.62194824 -0.45263672 C53.32329701 -0.45548805 57.57923679 -0.06592683 63 4 C64.7421875 6 64.7421875 6 65.875 8 C66.45894531 8.99 66.45894531 8.99 67.0546875 10 C70.53672196 17.36694895 70.11880931 27.4153656 67.75 35.0625 C65.81120892 39.92300416 63.58492111 43.07546269 59 45.75 C55.06748769 47.38854679 51.85358571 48.12603996 47.59863281 48.11352539 C46.3077475 48.11341209 46.3077475 48.11341209 44.99078369 48.11329651 C44.07085632 48.10813522 43.15092896 48.10297394 42.203125 48.09765625 C40.77996979 48.09553383 40.77996979 48.09553383 39.32806396 48.09336853 C36.30201038 48.08777742 33.27603117 48.07522652 30.25 48.0625 C28.19661565 48.05748385 26.14323014 48.05292115 24.08984375 48.04882812 C19.05984423 48.0386624 14.03000523 48.01908518 9 48 C9 56.91 9 65.82 9 75 C6.03 75 3.06 75 0 75 C0 50.25 0 25.5 0 0 Z M9 9 C9 18.9 9 28.8 9 39 C14.42624041 39.04605013 19.85179567 39.08583405 25.27807617 39.10986328 C27.12184962 39.11988642 28.96560731 39.13350852 30.80932617 39.15087891 C33.4679759 39.17528995 36.12641443 39.18652017 38.78515625 39.1953125 C39.60210464 39.20563507 40.41905304 39.21595764 41.26075745 39.22659302 C46.22093605 39.22755331 50.34352804 38.77526837 55 37 C59.67090763 31.22282478 60.67097714 26.21300428 60 19 C58.82342343 14.48402227 57.02693124 11.45900651 53 9 C50.82720642 8.57155514 50.82720642 8.57155514 48.50683594 8.65942383 C47.62622498 8.65965042 46.74561401 8.65987701 45.83831787 8.66011047 C44.42561615 8.68333626 44.42561615 8.68333626 42.984375 8.70703125 C42.01340881 8.71127609 41.04244263 8.71552094 40.04205322 8.71989441 C36.94441869 8.73667147 33.84743751 8.77432228 30.75 8.8125 C28.6484469 8.82754808 26.5468836 8.84123627 24.4453125 8.85351562 C19.2964215 8.88401853 14.14894106 8.94274242 9 9 Z " fill="#EB6D60" transform="translate(380,985)"/>
<path d="M0 0 C1.23556641 0.01740234 1.23556641 0.01740234 2.49609375 0.03515625 C3.32238281 0.04417969 4.14867187 0.05320312 5 0.0625 C5.63808594 0.07410156 6.27617188 0.08570313 6.93359375 0.09765625 C7.24474121 0.72518799 7.55588867 1.35271973 7.87646484 1.99926758 C15.6734705 17.71254421 15.6734705 17.71254421 23.74609375 33.28515625 C27.854311 41.0505837 31.95702198 48.81864226 36.01913452 56.60830688 C36.70894354 57.92848482 37.40100235 59.24748979 38.09536743 60.5652771 C39.07064399 62.4168721 40.03811328 64.27235112 41.00390625 66.12890625 C41.56867676 67.20720703 42.13344727 68.28550781 42.71533203 69.39648438 C43.93359375 72.09765625 43.93359375 72.09765625 43.93359375 75.09765625 C40.63359375 75.09765625 37.33359375 75.09765625 33.93359375 75.09765625 C32.59520642 72.6419545 31.26273143 70.18335709 29.93359375 67.72265625 C29.55203125 67.02398438 29.17046875 66.3253125 28.77734375 65.60546875 C25.93359375 60.32421875 25.93359375 60.32421875 25.93359375 58.09765625 C10.42359375 58.42765625 -5.08640625 58.75765625 -21.06640625 59.09765625 C-23.70640625 64.04765625 -26.34640625 68.99765625 -29.06640625 74.09765625 C-30.06640625 75.09765625 -30.06640625 75.09765625 -32.3515625 75.1953125 C-33.26808594 75.18371094 -34.18460938 75.17210937 -35.12890625 75.16015625 C-36.50755859 75.14662109 -36.50755859 75.14662109 -37.9140625 75.1328125 C-38.62433594 75.12121094 -39.33460938 75.10960937 -40.06640625 75.09765625 C-38.44360069 69.53447948 -35.90911456 64.60241819 -33.26171875 59.4765625 C-32.54792053 58.08240364 -32.54792053 58.08240364 -31.81970215 56.66007996 C-30.2811647 53.65791412 -28.73649406 50.65895539 -27.19140625 47.66015625 C-26.1395475 45.61178903 -25.08795255 43.56328634 -24.03662109 41.51464844 C-21.05329843 35.70549637 -18.06148374 29.90075492 -15.06640625 24.09765625 C-14.67839844 23.34546814 -14.29039062 22.59328003 -13.890625 21.81829834 C-11.83021443 17.82495566 -9.7643042 13.83453664 -7.69140625 9.84765625 C-6.98008545 8.47782593 -6.98008545 8.47782593 -6.25439453 7.08032227 C-5.83399902 6.27651123 -5.41360352 5.4727002 -4.98046875 4.64453125 C-4.62936035 3.97260742 -4.27825195 3.30068359 -3.91650391 2.60839844 C-2.51565088 0.11888709 -2.51565088 0.11888709 0 0 Z M1.93359375 13.09765625 C0.07123418 16.44733281 -1.77962817 19.80324264 -3.62890625 23.16015625 C-4.14259766 24.08376953 -4.65628906 25.00738281 -5.18554688 25.95898438 C-9.54263229 33.88833858 -13.21456695 41.8437149 -17.06640625 50.09765625 C-4.52640625 50.09765625 8.01359375 50.09765625 20.93359375 50.09765625 C19.53335624 45.89694372 18.27948418 42.5856351 16.25390625 38.76171875 C15.47853516 37.28832031 15.47853516 37.28832031 14.6875 35.78515625 C14.14996094 34.77453125 13.61242187 33.76390625 13.05859375 32.72265625 C11.99808289 30.71516854 10.93817548 28.7073619 9.87890625 26.69921875 C9.37649414 25.74821289 8.87408203 24.79720703 8.35644531 23.81738281 C6.49936771 20.26764972 4.7080035 16.68933589 2.93359375 13.09765625 C2.60359375 13.09765625 2.27359375 13.09765625 1.93359375 13.09765625 Z " fill="#EB6F62" transform="translate(590.06640625,984.90234375)"/>
<path d="M0 0 C1.23556641 0.01740234 1.23556641 0.01740234 2.49609375 0.03515625 C3.32238281 0.04417969 4.14867187 0.05320312 5 0.0625 C5.63808594 0.07410156 6.27617187 0.08570313 6.93359375 0.09765625 C7.24474121 0.72518799 7.55588867 1.35271973 7.87646484 1.99926758 C15.6734705 17.71254421 15.6734705 17.71254421 23.74609375 33.28515625 C27.854311 41.0505837 31.95702198 48.81864226 36.01913452 56.60830688 C36.70894354 57.92848482 37.40100235 59.24748979 38.09536743 60.5652771 C39.07064399 62.4168721 40.03811328 64.27235112 41.00390625 66.12890625 C41.56867676 67.20720703 42.13344727 68.28550781 42.71533203 69.39648438 C43.93359375 72.09765625 43.93359375 72.09765625 43.93359375 75.09765625 C40.63359375 75.09765625 37.33359375 75.09765625 33.93359375 75.09765625 C32.59520642 72.6419545 31.26273143 70.18335709 29.93359375 67.72265625 C29.55203125 67.02398438 29.17046875 66.3253125 28.77734375 65.60546875 C25.93359375 60.32421875 25.93359375 60.32421875 25.93359375 58.09765625 C10.42359375 58.42765625 -5.08640625 58.75765625 -21.06640625 59.09765625 C-23.70640625 64.04765625 -26.34640625 68.99765625 -29.06640625 74.09765625 C-30.06640625 75.09765625 -30.06640625 75.09765625 -32.3515625 75.1953125 C-33.26808594 75.18371094 -34.18460937 75.17210937 -35.12890625 75.16015625 C-36.50755859 75.14662109 -36.50755859 75.14662109 -37.9140625 75.1328125 C-38.62433594 75.12121094 -39.33460938 75.10960937 -40.06640625 75.09765625 C-38.44360069 69.53447948 -35.90911456 64.60241819 -33.26171875 59.4765625 C-32.54792053 58.08240364 -32.54792053 58.08240364 -31.81970215 56.66007996 C-30.2811647 53.65791412 -28.73649406 50.65895539 -27.19140625 47.66015625 C-26.1395475 45.61178903 -25.08795255 43.56328634 -24.03662109 41.51464844 C-21.05329843 35.70549637 -18.06148374 29.90075492 -15.06640625 24.09765625 C-14.67839844 23.34546814 -14.29039062 22.59328003 -13.890625 21.81829834 C-11.83021443 17.82495566 -9.7643042 13.83453664 -7.69140625 9.84765625 C-6.98008545 8.47782593 -6.98008545 8.47782593 -6.25439453 7.08032227 C-5.83399902 6.27651123 -5.41360352 5.4727002 -4.98046875 4.64453125 C-4.62936035 3.97260742 -4.27825195 3.30068359 -3.91650391 2.60839844 C-2.51565088 0.11888709 -2.51565088 0.11888709 0 0 Z M1.93359375 13.09765625 C0.07123418 16.44733281 -1.77962817 19.80324264 -3.62890625 23.16015625 C-4.14259766 24.08376953 -4.65628906 25.00738281 -5.18554688 25.95898438 C-9.54263229 33.88833858 -13.21456695 41.8437149 -17.06640625 50.09765625 C-4.52640625 50.09765625 8.01359375 50.09765625 20.93359375 50.09765625 C19.53335624 45.89694372 18.27948418 42.5856351 16.25390625 38.76171875 C15.47853516 37.28832031 15.47853516 37.28832031 14.6875 35.78515625 C14.14996094 34.77453125 13.61242187 33.76390625 13.05859375 32.72265625 C11.99808289 30.71516854 10.93817548 28.7073619 9.87890625 26.69921875 C9.37649414 25.74821289 8.87408203 24.79720703 8.35644531 23.81738281 C6.49936771 20.26764972 4.7080035 16.68933589 2.93359375 13.09765625 C2.60359375 13.09765625 2.27359375 13.09765625 1.93359375 13.09765625 Z " fill="#EB6F62" transform="translate(324.06640625,984.90234375)"/>
<path d="M0 0 C2.97 0 5.94 0 9 0 C9 10.89 9 21.78 9 33 C27.15 33 45.3 33 64 33 C64 22.11 64 11.22 64 0 C66.97 0 69.94 0 73 0 C73 24.75 73 49.5 73 75 C70.03 75 67.06 75 64 75 C64 64.11 64 53.22 64 42 C45.85 42 27.7 42 9 42 C9 52.89 9 63.78 9 75 C6.03 75 3.06 75 0 75 C0 50.25 0 25.5 0 0 Z " fill="#EB6C5F" transform="translate(539,867)"/>
<path d="M0 0 C2.19194349 0.02364004 4.38266766 0.02053479 6.57470703 0.01391602 C14.16849021 0.03035417 21.2861868 0.50565693 28.69580078 2.33618164 C28.69580078 5.30618164 28.69580078 8.27618164 28.69580078 11.33618164 C27.99414795 11.26689453 27.29249512 11.19760742 26.56958008 11.1262207 C18.54036007 10.38859559 10.56925559 10.12098339 2.50830078 10.08618164 C1.30238281 10.06555664 0.09646484 10.04493164 -1.14599609 10.02368164 C-9.34646207 9.98785219 -16.02189067 10.76679651 -23.11669922 15.02368164 C-30.07421702 22.37877189 -30.61044693 31.04892509 -30.51904297 40.75805664 C-30.06656824 48.29381764 -28.00644421 56.05084607 -22.30419922 61.33618164 C-15.89145149 65.34414897 -10.16483885 67.46046144 -2.61279297 67.46899414 C-0.94700195 67.47092773 -0.94700195 67.47092773 0.75244141 67.47290039 C1.909375 67.4690332 3.06630859 67.46516602 4.25830078 67.46118164 C5.38816406 67.46504883 6.51802734 67.46891602 7.68212891 67.47290039 C14.74150859 67.46477215 21.679147 67.11393975 28.69580078 66.33618164 C28.69580078 69.30618164 28.69580078 72.27618164 28.69580078 75.33618164 C21.57832269 78.89492068 10.9991885 77.55457005 3.25830078 77.58618164 C1.37014648 77.61711914 1.37014648 77.61711914 -0.55615234 77.64868164 C-12.02986089 77.69656358 -21.39355368 75.89828121 -30.30419922 68.33618164 C-39.91451134 58.20128917 -40.70700424 46.15183321 -40.51904297 32.83227539 C-40.19880105 23.29861379 -37.47279877 14.41248477 -30.55419922 7.61743164 C-21.51605138 0.18282616 -11.20988393 -0.12912302 0 0 Z " fill="#EB7164" transform="translate(493.30419921875,865.663818359375)"/>
<path d="M0 0 C0.68185364 -0.00095673 1.36370728 -0.00191345 2.06622314 -0.00289917 C3.5050872 -0.00357728 4.94395438 -0.00174882 6.3828125 0.00244141 C8.55736377 0.00776171 10.73170537 0.00250107 12.90625 -0.00390625 C31.5343733 -0.01406335 31.5343733 -0.01406335 35.828125 2.1328125 C35.498125 5.1028125 35.168125 8.0728125 34.828125 11.1328125 C34.19648438 11.06425049 33.56484375 10.99568848 32.9140625 10.92504883 C25.21392498 10.15045827 17.56458504 9.88297281 9.828125 9.8203125 C8.03761719 9.77680664 8.03761719 9.77680664 6.2109375 9.73242188 C-2.03767756 9.67376105 -10.64394967 10.2393489 -17.17382812 15.85424805 C-24.26412738 23.36716996 -23.68237747 32.55487576 -23.4765625 42.25390625 C-23.11610664 50.09307649 -21.18166252 55.5267766 -15.546875 61.0703125 C-8.04123399 67.74017253 2.3797548 67.55818828 11.828125 67.3828125 C13.49488281 67.37507813 13.49488281 67.37507813 15.1953125 67.3671875 C21.80038424 67.30502212 28.2671655 66.89172946 34.828125 66.1328125 C35.323125 70.5878125 35.323125 70.5878125 35.828125 75.1328125 C27.33654658 77.02831254 19.13762251 77.4987283 10.453125 77.5078125 C9.22851562 77.53230469 8.00390625 77.55679687 6.7421875 77.58203125 C-3.35758758 77.61412799 -14.55337594 76.28121248 -22.68359375 69.6640625 C-31.64193111 60.44708548 -33.69676323 49.66005224 -33.609375 37.1953125 C-33.62935547 36.18791016 -33.64933594 35.18050781 -33.66992188 34.14257812 C-33.66351029 24.17256232 -31.23508271 15.2031943 -24.234375 7.85546875 C-16.95003237 1.77138712 -9.28594375 0.0083314 0 0 Z " fill="#EB7064" transform="translate(243.171875,983.8671875)"/>
<path d="M0 0 C23.76 0 47.52 0 72 0 C71.67 2.97 71.34 5.94 71 9 C61.1 9 51.2 9 41 9 C41 30.78 41 52.56 41 75 C38.03 75 35.06 75 32 75 C32 53.22 32 31.44 32 9 C21.44 9 10.88 9 0 9 C0 6.03 0 3.06 0 0 Z " fill="#EB6E61" transform="translate(488,985)"/>
<path d="M0 0 C23.43 0 46.86 0 71 0 C71 2.64 71 5.28 71 8 C70.67 8.33 70.34 8.66 70 9 C60.1 9 50.2 9 40 9 C40 30.78 40 52.56 40 75 C37.03 75 34.06 75 31 75 C31 53.22 31 31.44 31 9 C20.77 9 10.54 9 0 9 C0 6.03 0 3.06 0 0 Z " fill="#EB6D60" transform="translate(293,867)"/>
<path d="M0 0 C2.97 0 5.94 0 9 0 C9 21.78 9 43.56 9 66 C27.15 66 45.3 66 64 66 C63.67 68.97 63.34 71.94 63 75 C42.21 75 21.42 75 0 75 C0 50.25 0 25.5 0 0 Z " fill="#EB6E61" transform="translate(646,985)"/>
<path d="M0 0 C5 0 5 0 6.921875 1.9140625 C7.52515625 2.80867188 8.1284375 3.70328125 8.75 4.625 C9.42546875 5.61371094 10.1009375 6.60242187 10.796875 7.62109375 C11.533855 8.74569301 12.26808166 9.87209993 13 11 C13.40927734 11.62535645 13.81855469 12.25071289 14.24023438 12.89501953 C16.86161001 16.90837373 19.44293994 20.94540244 22 25 C24.94902232 22.22624257 27.14289621 19.45007192 29.27734375 16.015625 C29.87353516 15.08105469 30.46972656 14.14648438 31.08398438 13.18359375 C32.3256182 11.21843674 33.55732509 9.24697445 34.77929688 7.26953125 C35.37677734 6.34011719 35.97425781 5.41070313 36.58984375 4.453125 C37.12472412 3.59879883 37.65960449 2.74447266 38.21069336 1.86425781 C39.09640015 0.9414502 39.09640015 0.9414502 40 0 C41.65 0 43.3 0 45 0 C45 13.53 45 27.06 45 41 C43.35 41 41.7 41 40 41 C39.67 31.76 39.34 22.52 39 13 C34.96811004 19.56761046 34.96811004 19.56761046 30.98388672 26.1640625 C30.47100098 26.97617188 29.95811523 27.78828125 29.4296875 28.625 C28.91647949 29.46289062 28.40327148 30.30078125 27.87451172 31.1640625 C26 33 26 33 22.93432617 33.41992188 C20 33 20 33 17.62109375 30.65625 C16.90050781 29.6146875 16.17992187 28.573125 15.4375 27.5 C14.71433594 26.4790625 13.99117187 25.458125 13.24609375 24.40625 C10.76642987 20.64578583 8.38733925 16.8197428 6 13 C5.67 22.24 5.34 31.48 5 41 C3.35 41 1.7 41 0 41 C0 27.47 0 13.94 0 0 Z " fill="#F0968D" transform="translate(123,1109)"/>
<path d="M0 0 C1.05316406 0.00193359 2.10632813 0.00386719 3.19140625 0.00585938 C4.82529297 0.02422852 4.82529297 0.02422852 6.4921875 0.04296875 C8.13767578 0.04393555 8.13767578 0.04393555 9.81640625 0.04492188 C17.94519553 0.08980476 17.94519553 0.08980476 21.3671875 1.23046875 C21.3671875 2.88046875 21.3671875 4.53046875 21.3671875 6.23046875 C20.74263672 6.2147583 20.11808594 6.19904785 19.47460938 6.18286133 C16.60556333 6.11994831 13.73666308 6.08130144 10.8671875 6.04296875 C9.88492187 6.01783203 8.90265625 5.99269531 7.890625 5.96679688 C1.64149513 5.90430558 -2.96719332 6.53100611 -8.6328125 9.23046875 C-12.21726282 13.16180136 -12.6328125 18.07306474 -12.6328125 23.23046875 C-12.18542282 27.20105215 -11.28488216 30.37603265 -8.8203125 33.60546875 C-4.04824889 37.15043029 0.49066682 37.92182412 6.3671875 37.23046875 C10.54562462 36.27539741 13.51526422 35.2472804 16.3046875 31.91796875 C17.66073482 28.76277816 17.66073482 28.76277816 18.3671875 23.23046875 C12.7571875 23.23046875 7.1471875 23.23046875 1.3671875 23.23046875 C1.6971875 21.58046875 2.0271875 19.93046875 2.3671875 18.23046875 C9.2971875 18.23046875 16.2271875 18.23046875 23.3671875 18.23046875 C23.3671875 26.15046875 23.3671875 34.07046875 23.3671875 42.23046875 C21.7171875 42.23046875 20.0671875 42.23046875 18.3671875 42.23046875 C18.0371875 41.24046875 17.7071875 40.25046875 17.3671875 39.23046875 C16.47 39.94203125 16.47 39.94203125 15.5546875 40.66796875 C9.69591777 44.85280427 1.25571179 43.70460513 -5.6328125 43.23046875 C-10.54393817 42.04723673 -13.43313824 40.03322675 -16.0703125 35.73046875 C-19.37452669 28.32902897 -19.85429125 19.88581919 -18.13671875 11.93359375 C-16.24804043 7.1105282 -12.97540237 3.36762668 -8.32080078 1.1081543 C-5.389047 0.15087411 -3.0780546 -0.01317174 0 0 Z " fill="#F19E96" transform="translate(334.6328125,1107.76953125)"/>
<path d="M0 0 C5 0 5 0 6.9921875 1.46875 C7.92417969 2.47421875 7.92417969 2.47421875 8.875 3.5 C9.56464844 4.23476562 10.25429687 4.96953125 10.96484375 5.7265625 C13.37500043 8.41890643 15.78099172 11.1113375 18.13671875 13.8515625 C21.02912002 17.18661637 24.01181817 20.43954862 26.984375 23.703125 C28.75433775 25.7200593 30.3899425 27.85325667 32 30 C32.33 20.1 32.66 10.2 33 0 C34.98 0 36.96 0 39 0 C39 13.53 39 27.06 39 41 C33 41 33 41 30.25390625 38.65625 C29.33960983 37.61904542 28.4431029 36.56595958 27.5625 35.5 C27.08514404 34.95045654 26.60778809 34.40091309 26.1159668 33.8347168 C24.72971939 32.23473184 23.36469345 30.61835975 22 29 C20.77337269 27.60193462 19.54463348 26.20571515 18.3125 24.8125 C17.219375 23.554375 16.12625 22.29625 15 21 C12.36 18.03 9.72 15.06 7 12 C6.67 21.57 6.34 31.14 6 41 C4.02 41 2.04 41 0 41 C0 27.47 0 13.94 0 0 Z " fill="#F19C94" transform="translate(225,1109)"/>
<path d="M0 0 C5.011875 -0.0825 10.02375 -0.165 15.1875 -0.25 C17.54684692 -0.30462402 17.54684692 -0.30462402 19.95385742 -0.36035156 C21.20013916 -0.3703418 22.4464209 -0.38033203 23.73046875 -0.390625 C25.00301514 -0.41157227 26.27556152 -0.43251953 27.58666992 -0.45410156 C31.58456019 0.07776854 33.17162834 1.18688175 36 4 C38.38038207 8.08065497 38.57743154 12.38054771 38 17 C36.83489285 21.0858552 35.63828755 23.57447496 32 26 C30.0103005 26.39013716 28.00980131 26.73202649 26 27 C26.7940625 27.84304688 27.588125 28.68609375 28.40625 29.5546875 C29.4377598 30.6612162 30.46899569 31.76800029 31.5 32.875 C32.02464844 33.43058594 32.54929687 33.98617188 33.08984375 34.55859375 C37 38.7734375 37 38.7734375 37 41 C32.78502464 41.39450508 30.70086257 41.51871749 27.234375 38.953125 C26.41453125 38.06109375 25.5946875 37.1690625 24.75 36.25 C23.91984375 35.36828125 23.0896875 34.4865625 22.234375 33.578125 C20 31 20 31 18.58984375 28.71875 C15.32623105 25.19052005 9.47193059 26.1923411 5 26 C5 30.95 5 35.9 5 41 C3.35 41 1.7 41 0 41 C0 27.47 0 13.94 0 0 Z M5 5 C5 10.28 5 15.56 5 21 C8.75076665 21.10784952 12.49843949 21.18724988 16.25 21.25 C17.84521484 21.30027344 17.84521484 21.30027344 19.47265625 21.3515625 C21.00986328 21.37089844 21.00986328 21.37089844 22.578125 21.390625 C23.52075195 21.41157227 24.46337891 21.43251953 25.43457031 21.45410156 C28.75470139 20.86641182 29.9123115 19.58490025 32 17 C32.65791193 15.02572175 32.65791193 15.02572175 32.5625 13 C32.58441406 12.34 32.60632813 11.68 32.62890625 11 C31.56261577 7.6090638 30.10024947 6.72575463 27 5 C23.21536577 4.51874727 19.49459358 4.62334046 15.6875 4.75 C14.66076172 4.76804687 13.63402344 4.78609375 12.57617188 4.8046875 C10.05037929 4.85167899 7.52506863 4.92341831 5 5 Z " fill="#F0968D" transform="translate(567,1109)"/>
<path d="M0 0 C4.49625 -0.061875 8.9925 -0.12375 13.625 -0.1875 C15.03217285 -0.21481201 16.4393457 -0.24212402 17.88916016 -0.27026367 C19.01112793 -0.27775635 20.1330957 -0.28524902 21.2890625 -0.29296875 C23.00150146 -0.31653442 23.00150146 -0.31653442 24.74853516 -0.34057617 C29.62904367 0.17063492 32.8888461 1.82711533 36.25 5.375 C39.65688155 10.48532232 40.34069062 14.8652411 40.3125 20.9375 C40.32861328 21.62779297 40.34472656 22.31808594 40.36132812 23.02929688 C40.36651663 28.5031737 39.24165386 32.59863543 35.46484375 36.64453125 C30.62268701 40.34735699 28.54731788 41.12411877 22.4609375 41.09765625 C21.28837402 41.09515869 20.11581055 41.09266113 18.90771484 41.09008789 C16.664021 41.07643188 16.664021 41.07643188 14.375 41.0625 C9.63125 41.041875 4.8875 41.02125 0 41 C0 27.47 0 13.94 0 0 Z M6 5 C6 15.23 6 25.46 6 36 C9.01125 36.061875 12.0225 36.12375 15.125 36.1875 C16.06230957 36.21481201 16.99961914 36.24212402 17.96533203 36.27026367 C23.07711326 36.32089154 26.57815321 35.85793854 31 33 C35.03578054 28.54672492 35.2905891 24.28580128 35.21484375 18.50390625 C34.80091227 13.67972302 32.99116251 10.91682532 29.5 7.6875 C26.16945525 5.4393823 23.69574168 4.87449829 19.76953125 4.90234375 C18.68442261 4.90609009 18.68442261 4.90609009 17.57739258 4.90991211 C16.20877075 4.92356812 16.20877075 4.92356812 14.8125 4.9375 C11.904375 4.958125 8.99625 4.97875 6 5 Z " fill="#F19A92" transform="translate(410,1109)"/>
<path d="M0 0 C2.97 0 5.94 0 9 0 C9 24.75 9 49.5 9 75 C6.03 75 3.06 75 0 75 C0 50.25 0 25.5 0 0 Z " fill="#EB6B5E" transform="translate(466,985)"/>
<path d="M0 0 C11.55 0 23.1 0 35 0 C35 1.65 35 3.3 35 5 C25.43 5 15.86 5 6 5 C6 9.29 6 13.58 6 18 C14.58 18 23.16 18 32 18 C32 19.65 32 21.3 32 23 C23.42 23 14.84 23 6 23 C6 27.29 6 31.58 6 36 C15.57 36 25.14 36 35 36 C35 37.65 35 39.3 35 41 C23.45 41 11.9 41 0 41 C0 27.47 0 13.94 0 0 Z " fill="#F0978E" transform="translate(721,1109)"/>
<path d="M0 0 C11.55 0 23.1 0 35 0 C35 1.65 35 3.3 35 5 C25.43 5 15.86 5 6 5 C6 9.29 6 13.58 6 18 C14.58 18 23.16 18 32 18 C31.67 19.65 31.34 21.3 31 23 C22.75 23 14.5 23 6 23 C6 27.29 6 31.58 6 36 C15.57 36 25.14 36 35 36 C35 37.65 35 39.3 35 41 C23.45 41 11.9 41 0 41 C0 27.47 0 13.94 0 0 Z " fill="#F0968E" transform="translate(367,1109)"/>
<path d="M0 0 C0.969375 -0.00128906 1.93875 -0.00257812 2.9375 -0.00390625 C4.4534375 0.00189453 4.4534375 0.00189453 6 0.0078125 C7.010625 0.00394531 8.02125 0.00007813 9.0625 -0.00390625 C10.031875 -0.00261719 11.00125 -0.00132813 12 0 C13.3303125 0.00169189 13.3303125 0.00169189 14.6875 0.00341797 C17 0.1328125 17 0.1328125 20 1.1328125 C20 2.7828125 20 4.4328125 20 6.1328125 C19.43079834 6.11710205 18.86159668 6.1013916 18.27514648 6.08520508 C15.66270126 6.02232811 13.0504159 5.98365718 10.4375 5.9453125 C9.54224609 5.92017578 8.64699219 5.89503906 7.72460938 5.86914062 C2.00215108 5.80625647 -1.91424859 6.47482719 -7 9.1328125 C-7 11.1128125 -7 13.0928125 -7 15.1328125 C-0.38676654 17.23770171 6.20390008 18.87144845 13.01953125 20.19140625 C16.41733406 21.26463099 18.40624899 22.71601398 21 25.1328125 C22.73263912 28.59809074 22.4719774 32.34388278 22 36.1328125 C19.6326454 40.2537631 17.4336037 41.68279621 13 43.1328125 C10.27685547 43.37573242 10.27685547 43.37573242 7.3671875 43.36328125 C6.31402344 43.36134766 5.26085937 43.35941406 4.17578125 43.35742188 C3.08652344 43.34517578 1.99726562 43.33292969 0.875 43.3203125 C-0.22199219 43.31966797 -1.31898438 43.31902344 -2.44921875 43.31835938 C-10.57800803 43.27347649 -10.57800803 43.27347649 -14 42.1328125 C-14 40.4828125 -14 38.8328125 -14 37.1328125 C-13.36497559 37.14328613 -12.72995117 37.15375977 -12.07568359 37.16455078 C-9.1754966 37.20633717 -6.27537318 37.23221021 -3.375 37.2578125 C-2.37597656 37.27457031 -1.37695312 37.29132813 -0.34765625 37.30859375 C7.02283933 37.35985665 7.02283933 37.35985665 14 35.1328125 C15.42055068 33.13145006 15.42055068 33.13145006 16 31.1328125 C12.44581706 26.52198057 8.55533222 26.08026949 3.125 25.1328125 C-2.76974969 24.09425954 -7.2591023 23.07631151 -12 19.1328125 C-14.51908654 15.52902014 -14.18877323 12.53293718 -13.61328125 8.32421875 C-12.65775922 4.90990117 -10.76434517 3.23898025 -8 1.1328125 C-5.04086588 0.14643446 -3.08601102 0.0039248 0 0 Z " fill="#F09990" transform="translate(776,1107.8671875)"/>
<path d="M0 0 C1.41829102 0.0009668 1.41829102 0.0009668 2.86523438 0.00195312 C6.90104112 0.02762257 10.53783882 0.06426761 14.4375 1.1875 C14.1075 2.8375 13.7775 4.4875 13.4375 6.1875 C12.57584229 6.17178955 12.57584229 6.17178955 11.69677734 6.15576172 C9.06873023 6.11392901 6.44075346 6.088088 3.8125 6.0625 C2.90886719 6.04574219 2.00523437 6.02898437 1.07421875 6.01171875 C-3.89000152 5.97548357 -7.90661907 6.22305854 -12.5625 8.1875 C-12.8925 10.1675 -13.2225 12.1475 -13.5625 14.1875 C-8.52488568 17.7756599 -3.20515303 18.44573861 2.75585938 19.47265625 C8.30126399 20.55853464 11.57817286 21.9695897 15.4375 26.1875 C16.54210976 29.95616859 16.31414005 33.37153745 15.4375 37.1875 C13.12997899 40.47985086 10.23135573 41.92288142 6.4375 43.1875 C4.62689058 43.28135984 2.81303936 43.31820571 1 43.3203125 C-0.58941406 43.32224609 -0.58941406 43.32224609 -2.2109375 43.32421875 C-3.31695312 43.32035156 -4.42296875 43.31648438 -5.5625 43.3125 C-6.66851562 43.31636719 -7.77453125 43.32023437 -8.9140625 43.32421875 C-9.97367187 43.32292969 -11.03328125 43.32164063 -12.125 43.3203125 C-13.09566406 43.31918457 -14.06632812 43.31805664 -15.06640625 43.31689453 C-17.5625 43.1875 -17.5625 43.1875 -20.5625 42.1875 C-20.5625 40.5375 -20.5625 38.8875 -20.5625 37.1875 C-19.89718262 37.19797363 -19.23186523 37.20844727 -18.54638672 37.21923828 C-15.5101301 37.26100465 -12.47393414 37.28689152 -9.4375 37.3125 C-8.39078125 37.32925781 -7.3440625 37.34601563 -6.265625 37.36328125 C-0.96980664 37.39679909 3.4946059 37.35963685 8.4375 35.1875 C9.20706136 32.84216049 9.20706136 32.84216049 9.4375 30.1875 C7.40019077 27.53313087 5.65461317 26.7387372 2.41796875 26.125 C1.25491211 25.88910156 1.25491211 25.88910156 0.06835938 25.6484375 C-0.73794922 25.49632812 -1.54425781 25.34421875 -2.375 25.1875 C-7.85221263 24.13914462 -12.73259061 23.14609687 -17.5625 20.1875 C-20.39410532 15.94009201 -20.20772317 12.17403957 -19.5625 7.1875 C-15.13447154 -0.6845506 -8.07708814 -0.10504085 0 0 Z " fill="#F19E96" transform="translate(499.5625,1107.8125)"/>
<path d="M0 0 C11.55 0 23.1 0 35 0 C35 1.65 35 3.3 35 5 C25.1 5 15.2 5 5 5 C5 9.29 5 13.58 5 18 C13.58 18 22.16 18 31 18 C31 19.65 31 21.3 31 23 C22.42 23 13.84 23 5 23 C5 27.29 5 31.58 5 36 C14.9 36 24.8 36 35 36 C35 37.65 35 39.3 35 41 C23.45 41 11.9 41 0 41 C0 27.47 0 13.94 0 0 Z " fill="#ED8075" transform="translate(524,1109)"/>
<path d="M0 0 C1.98 0 3.96 0 6 0 C6.53572632 1.07930786 6.53572632 1.07930786 7.08227539 2.18041992 C8.74012668 5.5172229 10.40055556 8.85273444 12.0625 12.1875 C12.35901459 12.78280518 12.65552917 13.37811035 12.96102905 13.99145508 C16.80613625 21.70442855 20.70789241 29.35837484 24.92578125 36.875 C26 39 26 39 26 41 C23.69 41 21.38 41 19 41 C17.68 38.36 16.36 35.72 15 33 C7.08 33 -0.84 33 -9 33 C-10.32 35.64 -11.64 38.28 -13 41 C-15.31 41 -17.62 41 -20 41 C-18.61910597 36.4861466 -16.81474292 32.46177658 -14.62890625 28.28125 C-14.30591049 27.66028442 -13.98291473 27.03931885 -13.65013123 26.39953613 C-12.62503644 24.43084444 -11.5939642 22.46536073 -10.5625 20.5 C-9.53598533 18.53394295 -8.51070154 16.56724783 -7.48558044 14.60046387 C-6.55427634 12.81530149 -5.62011488 11.03163062 -4.68579102 9.24804688 C-3.09334139 6.1798427 -1.53724492 3.09617007 0 0 Z M2 9 C0.66180502 11.6226232 -0.6707151 14.24786599 -2 16.875 C-2.3815625 17.62136719 -2.763125 18.36773438 -3.15625 19.13671875 C-3.5171875 19.85214844 -3.878125 20.56757812 -4.25 21.3046875 C-4.58515625 21.96452637 -4.9203125 22.62436523 -5.265625 23.30419922 C-6.13246413 24.9978855 -6.13246413 24.9978855 -6 27 C-0.06 27 5.88 27 12 27 C10.50748294 22.52244882 8.99752948 18.77777506 6.875 14.625 C6.33617187 13.56539062 5.79734375 12.50578125 5.2421875 11.4140625 C4.83226562 10.61742187 4.42234375 9.82078125 4 9 C3.34 9 2.68 9 2 9 Z " fill="#F19F96" transform="translate(289,1109)"/>
<path d="M0 0 C2.625 -0.1875 2.625 -0.1875 5 0 C5.60585937 1.15113281 6.21171875 2.30226563 6.8359375 3.48828125 C7.23635254 4.24882813 7.63676758 5.009375 8.04931641 5.79296875 C8.94041935 7.48655666 9.83070594 9.18057433 10.72021484 10.875 C13.09152495 15.38924097 15.4761898 19.89537654 17.890625 24.38671875 C18.34904785 25.24418701 18.8074707 26.10165527 19.27978516 26.98510742 C20.16513219 28.64027254 21.05531009 30.29286418 21.95068359 31.94262695 C22.35109863 32.69374756 22.75151367 33.44486816 23.1640625 34.21875 C23.51936035 34.87810547 23.8746582 35.53746094 24.24072266 36.21679688 C25 38 25 38 25 41 C23.02 41 21.04 41 19 41 C15 34.25 15 34.25 15 32 C6.75 32 -1.5 32 -10 32 C-10.66 33.98 -11.32 35.96 -12 38 C-12.66 38.99 -13.32 39.98 -14 41 C-17.125 41.1875 -17.125 41.1875 -20 41 C-19.38626334 36.32568244 -17.41632836 32.51796688 -15.25390625 28.3984375 C-14.69714455 27.32101791 -14.69714455 27.32101791 -14.12913513 26.22183228 C-13.3460744 24.70920669 -12.56004665 23.19811384 -11.77124023 21.68847656 C-10.56451558 19.37885773 -9.36643912 17.06492066 -8.16992188 14.75 C-7.40674818 13.27838737 -6.64309265 11.8070245 -5.87890625 10.3359375 C-5.52051163 9.64527191 -5.162117 8.95460632 -4.79286194 8.24301147 C-3.30287978 5.3940532 -1.7853907 2.67808604 0 0 Z M2 8 C-0.97 14.27 -3.94 20.54 -7 27 C-0.73 27 5.54 27 12 27 C7.545 17.595 7.545 17.595 3 8 C2.67 8 2.34 8 2 8 Z " fill="#F19E96" transform="translate(194,1109)"/>
<path d="M0 0 C0.969375 -0.00128906 1.93875 -0.00257812 2.9375 -0.00390625 C4.4534375 0.00189453 4.4534375 0.00189453 6 0.0078125 C7.010625 0.00394531 8.02125 0.00007813 9.0625 -0.00390625 C10.031875 -0.00261719 11.00125 -0.00132813 12 0 C13.3303125 0.00169189 13.3303125 0.00169189 14.6875 0.00341797 C17 0.1328125 17 0.1328125 20 1.1328125 C20 2.7828125 20 4.4328125 20 6.1328125 C19.43603516 6.11710205 18.87207031 6.1013916 18.29101562 6.08520508 C15.69411565 6.02219676 13.09737725 5.98361652 10.5 5.9453125 C9.613125 5.92017578 8.72625 5.89503906 7.8125 5.86914062 C1.82021891 5.80304929 -2.56062751 6.56013632 -8 9.1328125 C-11.6860839 13.62522726 -11.44424237 18.70330834 -11.28515625 24.28515625 C-10.92525138 27.8792747 -10.16169515 30.22570523 -8 33.1328125 C-3.66426818 36.35681821 0.22622962 37.26641906 5.546875 37.23046875 C6.39121094 37.22724609 7.23554687 37.22402344 8.10546875 37.22070312 C8.97816406 37.21232422 9.85085938 37.20394531 10.75 37.1953125 C11.63816406 37.19080078 12.52632812 37.18628906 13.44140625 37.18164062 C15.62767329 37.1698865 17.81380179 37.15345499 20 37.1328125 C20 38.7828125 20 40.4328125 20 42.1328125 C16.18726885 44.03917808 11.56972782 43.40461333 7.375 43.4453125 C6.40175781 43.47431641 5.42851563 43.50332031 4.42578125 43.53320312 C-3.23153968 43.6001918 -8.7428623 42.2185219 -14.375 36.8828125 C-18.53908974 29.8358914 -18.97606358 21.64313508 -17.5703125 13.70703125 C-15.9774681 7.85676941 -13.10598814 4.38207768 -8 1.1328125 C-5.04086588 0.14643446 -3.08601102 0.0039248 0 0 Z " fill="#F19F96" transform="translate(693,1107.8671875)"/>
<path d="M0 0 C1.98 0 3.96 0 6 0 C7.89886062 3.45667915 9.7935154 6.91564713 11.6875 10.375 C12.21794922 11.34050781 12.74839844 12.30601563 13.29492188 13.30078125 C16.66875003 19.46888426 19.90583288 25.68689396 23 32 C23.26627197 31.49251221 23.53254395 30.98502441 23.80688477 30.4621582 C29.15195625 20.27926216 34.51837076 10.11015723 40 0 C41.98 0 43.96 0 46 0 C44.74076421 4.0014164 43.27274557 7.70200886 41.390625 11.44921875 C40.62878906 12.96999023 40.62878906 12.96999023 39.8515625 14.52148438 C39.32304688 15.56626953 38.79453125 16.61105469 38.25 17.6875 C37.73695313 18.71294922 37.22390625 19.73839844 36.6953125 20.79492188 C33.2691221 27.60856434 29.69451731 34.3282432 26 41 C24.02 41 22.04 41 20 41 C17.14653413 35.48507008 14.29834584 29.96746023 11.45507812 24.44726562 C10.4864842 22.56858344 9.51643592 20.69065035 8.54492188 18.81347656 C7.15114137 16.11978241 5.76256241 13.42346381 4.375 10.7265625 C3.71878662 9.46243027 3.71878662 9.46243027 3.04931641 8.17276001 C2.64890137 7.39210175 2.24848633 6.61144348 1.8359375 5.80712891 C1.48063965 5.11873932 1.1253418 4.43034973 0.75927734 3.72109985 C0 2 0 2 0 0 Z " fill="#F1A098" transform="translate(608,1109)"/>
<path d="M0 0 C1.98 0 3.96 0 6 0 C6 13.53 6 27.06 6 41 C4.02 41 2.04 41 0 41 C0 27.47 0 13.94 0 0 Z " fill="#F2A29A" transform="translate(660,1109)"/>
<path d="M0 0 C11.55 0 23.1 0 35 0 C35 1.65 35 3.3 35 5 C34.505 3.02 34.505 3.02 34 1 C23.11 1 12.22 1 1 1 C1 13.87 1 26.74 1 40 C11.56 40 22.12 40 33 40 C33 39.34 33 38.68 33 38 C23.76 38 14.52 38 5 38 C5 37.34 5 36.68 5 36 C14.9 36 24.8 36 35 36 C35 37.65 35 39.3 35 41 C23.45 41 11.9 41 0 41 C0 27.47 0 13.94 0 0 Z " fill="#F6C1BB" transform="translate(524,1109)"/>
<path d="M0 0 C0.66 0 1.32 0 2 0 C3.17666109 3.52998328 3.02013769 6.13637416 2.87890625 9.85546875 C2.85529526 10.51710526 2.83168427 11.17874176 2.80735779 11.86042786 C2.73090143 13.96968002 2.64680043 16.0785482 2.5625 18.1875 C2.5092612 19.61912196 2.45652093 21.05076254 2.40429688 22.48242188 C2.27531118 25.98851576 2.13946876 29.49430571 2 33 C1.34 33 0.68 33 0 33 C0 22.11 0 11.22 0 0 Z " fill="#F6C1BC" transform="translate(229,1117)"/>
<path d="M0 0 C1.32 0.33 2.64 0.66 4 1 C2.66801127 4.9959662 1.02185737 5.42013437 -2.609375 7.46875 C-3.45511078 7.95112122 -3.45511078 7.95112122 -4.31793213 8.4432373 C-6.12387573 9.47080531 -7.93664476 10.48557926 -9.75 11.5 C-10.95621124 12.18274276 -12.16194639 12.86632738 -13.3671875 13.55078125 C-15.59572588 14.81591987 -17.82727644 16.07497505 -20.06152344 17.33007812 C-21.99163058 18.42694859 -23.89314857 19.57604131 -25.75878906 20.77929688 C-26.49838867 21.18212891 -27.23798828 21.58496094 -28 22 C-28.66 21.67 -29.32 21.34 -30 21 C-28.4754495 20.0852697 -26.95084654 19.17062674 -25.42602539 18.25634766 C-24.08971507 17.45406927 -22.75427794 16.65033482 -21.41967773 15.84521484 C-17.85348458 13.69672448 -14.27576993 11.5751099 -10.6640625 9.50390625 C-9.63261108 8.90533813 -9.63261108 8.90533813 -8.58032227 8.29467773 C-7.2500138 7.52353341 -5.91461876 6.76108881 -4.57397461 6.00805664 C-2.55553772 4.86462492 -2.55553772 4.86462492 0 3 C0 2.01 0 1.02 0 0 Z " fill="#F8CDC8" transform="translate(493,358)"/>
<path d="M0 0 C1.010625 -0.01224609 2.02125 -0.02449219 3.0625 -0.03710938 C4.031875 -0.03904297 5.00125 -0.04097656 6 -0.04296875 C6.886875 -0.04707764 7.77375 -0.05118652 8.6875 -0.05541992 C11 0.1875 11 0.1875 14 2.1875 C5.09 2.1875 -3.82 2.1875 -13 2.1875 C-13.66 3.5075 -14.32 4.8275 -15 6.1875 C-15.99 6.5175 -16.98 6.8475 -18 7.1875 C-18.33 9.8275 -18.66 12.4675 -19 15.1875 C-19.33 15.1875 -19.66 15.1875 -20 15.1875 C-19.88286074 10.29959834 -19.73371871 7.11430259 -16.625 3.1875 C-11.48030375 -0.73226857 -6.19540702 0.00395115 0 0 Z " fill="#FDF4F3" transform="translate(782,1107.8125)"/>
<path d="M0 0 C1.32 0.33 2.64 0.66 4 1 C2.625 2.5 2.625 2.5 1 4 C0.34 4 -0.32 4 -1 4 C-1.33 6.64 -1.66 9.28 -2 12 C-2.33 12 -2.66 12 -3 12 C-2.88541307 10.56163249 -2.75790884 9.12429034 -2.625 7.6875 C-2.55539062 6.88699219 -2.48578125 6.08648438 -2.4140625 5.26171875 C-2 3 -2 3 0 0 Z " fill="#F7C9C4" transform="translate(765,1111)"/>
<path d="M0 0 C0.66 0.33 1.32 0.66 2 1 C1.07038578 2.15224028 0.1309875 3.29659176 -0.8125 4.4375 C-1.59560547 5.39462891 -1.59560547 5.39462891 -2.39453125 6.37109375 C-4 8 -4 8 -7 9 C-5.44499019 5.18315774 -2.96404505 2.80804268 0 0 Z " fill="#F0958C" transform="translate(222,989)"/>
<path d="M0 0 C0.66 0.33 1.32 0.66 2 1 C1.67 1.61875 1.34 2.2375 1 2.875 C-0.14193235 4.91018344 -0.14193235 4.91018344 0 7 C-2.475 6.01 -2.475 6.01 -5 5 C-5 4.34 -5 3.68 -5 3 C-2.625 1.3125 -2.625 1.3125 0 0 Z " fill="#F2A49C" transform="translate(388,270)"/>
</svg>
