<?xml version="1.0" encoding="UTF-8"?>
<svg xmlns="http://www.w3.org/2000/svg" xmlns:xlink="http://www.w3.org/1999/xlink" width="80px" height="150px" viewBox="0 0 232 316" version="1.1">
<g id="surface1">
<path style=" stroke:none;fill-rule:nonzero;fill:rgb(90.588235%,30.980392%,24.705882%);fill-opacity:1;" d="M 92.226562 71.355469 C 92.476562 71.496094 92.726562 71.640625 92.984375 71.785156 C 93.128906 71.867188 93.277344 71.949219 93.425781 72.03125 C 93.957031 72.324219 94.476562 72.632812 95 72.941406 C 95.445312 73.199219 95.894531 73.460938 96.34375 73.71875 C 97.363281 74.308594 98.378906 74.90625 99.394531 75.503906 C 100.960938 76.421875 102.539062 77.308594 104.125 78.1875 C 106.179688 79.332031 108.222656 80.496094 110.25 81.683594 C 112.5625 83.042969 114.894531 84.359375 117.234375 85.664062 C 119.589844 86.976562 121.921875 88.320312 124.25 89.679688 C 123.929688 90.632812 123.628906 90.710938 122.765625 91.199219 C 122.371094 91.421875 122.371094 91.421875 121.972656 91.648438 C 121.6875 91.808594 121.402344 91.964844 121.109375 92.128906 C 120.8125 92.296875 120.515625 92.464844 120.222656 92.632812 C 119.613281 92.980469 119.003906 93.324219 118.390625 93.667969 C 117.078125 94.414062 115.773438 95.175781 114.46875 95.941406 C 113.972656 96.230469 113.476562 96.519531 112.984375 96.808594 C 112.738281 96.949219 112.492188 97.09375 112.242188 97.238281 C 110.996094 97.96875 109.746094 98.695312 108.5 99.421875 C 108 99.710938 107.5 100.003906 107 100.296875 C 104 102.042969 104 102.042969 103.25 102.480469 C 102.753906 102.769531 102.257812 103.058594 101.761719 103.351562 C 100.453125 104.113281 99.140625 104.875 97.832031 105.636719 C 97.558594 105.796875 97.289062 105.957031 97.007812 106.121094 C 96.484375 106.425781 95.960938 106.730469 95.4375 107.03125 C 95.203125 107.171875 94.964844 107.308594 94.722656 107.449219 C 94.515625 107.570312 94.308594 107.691406 94.097656 107.8125 C 93.898438 107.929688 93.703125 108.046875 93.5 108.164062 C 93.285156 108.265625 93.070312 108.363281 92.847656 108.464844 C 92.183594 108.863281 92.183594 108.863281 92.09375 109.589844 C 92.089844 109.867188 92.089844 110.140625 92.089844 110.425781 C 92.085938 110.742188 92.082031 111.058594 92.078125 111.386719 C 92.082031 111.734375 92.082031 112.085938 92.085938 112.4375 C 92.082031 112.808594 92.082031 113.175781 92.078125 113.546875 C 92.070312 114.550781 92.070312 115.554688 92.074219 116.554688 C 92.074219 117.605469 92.066406 118.652344 92.0625 119.699219 C 92.050781 121.6875 92.050781 123.671875 92.046875 125.65625 C 92.046875 127.917969 92.039062 130.175781 92.03125 132.4375 C 92.011719 137.085938 92.003906 141.734375 92 146.382812 C 91.527344 146.152344 91.058594 145.917969 90.585938 145.683594 C 90.324219 145.554688 90.0625 145.425781 89.792969 145.289062 C 88.566406 144.664062 87.386719 143.964844 86.203125 143.261719 C 84.109375 142.027344 82 140.820312 79.875 139.640625 C 77.828125 138.503906 75.800781 137.34375 73.78125 136.15625 C 71.625 134.894531 69.453125 133.664062 67.265625 132.457031 C 65.332031 131.386719 63.398438 130.320312 61.484375 129.210938 C 61.3125 129.113281 61.140625 129.011719 60.960938 128.910156 C 60.1875 128.457031 59.757812 128.15625 59.25 127.398438 C 59.1875 126.722656 59.1875 126.722656 59.191406 125.886719 C 59.1875 125.570312 59.1875 125.253906 59.1875 124.929688 C 59.191406 124.578125 59.191406 124.226562 59.191406 123.875 C 59.195312 123.503906 59.191406 123.136719 59.191406 122.765625 C 59.191406 121.761719 59.195312 120.761719 59.199219 119.757812 C 59.203125 118.707031 59.203125 117.660156 59.203125 116.613281 C 59.203125 114.628906 59.207031 112.640625 59.214844 110.65625 C 59.21875 108.398438 59.222656 106.136719 59.226562 103.875 C 59.230469 99.226562 59.238281 94.578125 59.25 89.929688 C 59.410156 89.839844 59.570312 89.75 59.734375 89.65625 C 60.472656 89.238281 61.214844 88.824219 61.953125 88.40625 C 62.332031 88.195312 62.332031 88.195312 62.714844 87.976562 C 64.398438 87.027344 66.070312 86.058594 67.734375 85.074219 C 67.988281 84.921875 68.242188 84.773438 68.503906 84.617188 C 68.703125 84.5 68.902344 84.378906 69.109375 84.257812 C 70.53125 83.414062 71.960938 82.582031 73.390625 81.746094 C 75.636719 80.441406 77.882812 79.128906 80.125 77.8125 C 82.445312 76.453125 84.769531 75.09375 87.09375 73.738281 C 87.335938 73.597656 87.582031 73.453125 87.832031 73.308594 C 88.273438 73.050781 88.71875 72.792969 89.164062 72.535156 C 89.535156 72.320312 89.898438 72.09375 90.25 71.855469 C 90.992188 71.367188 91.34375 71.160156 92.226562 71.355469 Z M 92.226562 71.355469 "/>
<path style=" stroke:none;fill-rule:nonzero;fill:rgb(90.588235%,30.980392%,24.705882%);fill-opacity:1;" d="M 161 110.414062 C 161.128906 115.308594 161.226562 120.199219 161.285156 125.097656 C 161.3125 127.371094 161.351562 129.640625 161.414062 131.914062 C 161.46875 133.898438 161.503906 135.878906 161.515625 137.863281 C 161.523438 138.910156 161.542969 139.957031 161.582031 141.007812 C 161.816406 147.375 161.816406 147.375 160.460938 149.046875 C 159.15625 150.136719 157.726562 150.808594 156.136719 151.386719 C 155.3125 151.699219 154.621094 152.109375 153.878906 152.582031 C 153.441406 152.835938 153 153.09375 152.5625 153.347656 C 152.316406 153.492188 152.070312 153.632812 151.820312 153.78125 C 149.980469 154.851562 148.140625 155.910156 146.296875 156.96875 C 144.074219 158.246094 141.859375 159.546875 139.65625 160.855469 C 137.242188 162.292969 134.8125 163.707031 132.375 165.105469 C 132.222656 165.191406 132.070312 165.28125 131.910156 165.371094 C 131.480469 165.617188 131.050781 165.863281 130.617188 166.109375 C 130.371094 166.25 130.125 166.390625 129.871094 166.535156 C 129.25 166.867188 129.25 166.867188 128.5 167.117188 C 127.9375 166.878906 127.9375 166.878906 127.269531 166.5 C 127.023438 166.359375 126.773438 166.21875 126.515625 166.074219 C 126.25 165.917969 125.980469 165.761719 125.703125 165.601562 C 125.425781 165.445312 125.144531 165.285156 124.855469 165.121094 C 122.730469 163.910156 120.617188 162.675781 118.507812 161.4375 C 116.726562 160.394531 114.929688 159.378906 113.125 158.375 C 110.808594 157.085938 108.515625 155.769531 106.226562 154.425781 C 104.21875 153.25 102.195312 152.101562 100.164062 150.96875 C 96.347656 148.828125 96.347656 148.828125 96 148.132812 C 95.976562 147.640625 95.96875 147.144531 95.96875 146.648438 C 95.96875 146.335938 95.96875 146.019531 95.96875 145.691406 C 95.96875 145.339844 95.96875 144.988281 95.972656 144.636719 C 95.972656 144.265625 95.972656 143.898438 95.972656 143.527344 C 95.972656 142.523438 95.972656 141.519531 95.976562 140.515625 C 95.976562 139.46875 95.976562 138.417969 95.976562 137.371094 C 95.976562 135.382812 95.980469 133.394531 95.980469 131.40625 C 95.984375 129.144531 95.984375 126.882812 95.988281 124.621094 C 95.988281 119.96875 95.996094 115.316406 96 110.664062 C 96.441406 110.902344 96.882812 111.144531 97.324219 111.382812 C 97.566406 111.515625 97.8125 111.652344 98.066406 111.789062 C 101.832031 113.84375 105.570312 115.933594 109.269531 118.105469 C 111.042969 119.144531 112.828125 120.15625 114.625 121.152344 C 116.71875 122.320312 118.804688 123.503906 120.875 124.714844 C 121.121094 124.859375 121.371094 125.003906 121.625 125.152344 C 122.765625 125.816406 123.898438 126.488281 125.015625 127.183594 C 125.210938 127.300781 125.40625 127.421875 125.605469 127.542969 C 125.960938 127.761719 126.3125 127.984375 126.664062 128.210938 C 127.386719 128.652344 127.855469 128.910156 128.71875 128.847656 C 129.558594 128.632812 130.152344 128.332031 130.894531 127.882812 C 131.160156 127.722656 131.425781 127.5625 131.703125 127.394531 C 131.910156 127.265625 131.910156 127.265625 132.125 127.136719 C 132.722656 126.769531 133.324219 126.410156 133.925781 126.046875 C 134.238281 125.859375 134.550781 125.671875 134.859375 125.484375 C 136.410156 124.550781 137.976562 123.644531 139.546875 122.746094 C 142.375 121.121094 145.191406 119.484375 148.007812 117.839844 C 149.5 116.96875 150.992188 116.097656 152.488281 115.230469 C 153.808594 114.457031 155.132812 113.6875 156.453125 112.914062 C 156.730469 112.75 157.007812 112.589844 157.292969 112.421875 C 157.828125 112.105469 158.363281 111.792969 158.898438 111.476562 C 159.140625 111.339844 159.378906 111.199219 159.625 111.054688 C 159.941406 110.867188 159.941406 110.867188 160.265625 110.679688 C 160.75 110.414062 160.75 110.414062 161 110.414062 Z M 161 110.414062 "/>
<path style=" stroke:none;fill-rule:nonzero;fill:rgb(90.588235%,30.980392%,24.705882%);fill-opacity:1;" d="M 128.609375 49.628906 C 129.289062 49.980469 129.96875 50.332031 130.636719 50.707031 C 130.90625 50.855469 131.175781 51.003906 131.453125 51.160156 C 131.746094 51.320312 132.035156 51.484375 132.328125 51.648438 C 132.476562 51.730469 132.625 51.8125 132.78125 51.898438 C 135.128906 53.203125 137.453125 54.542969 139.769531 55.90625 C 141.542969 56.945312 143.328125 57.953125 145.125 58.953125 C 147.441406 60.242188 149.734375 61.558594 152.019531 62.898438 C 154.066406 64.097656 156.125 65.265625 158.195312 66.425781 C 158.421875 66.554688 158.648438 66.679688 158.878906 66.808594 C 159.078125 66.921875 159.277344 67.03125 159.480469 67.148438 C 159.914062 67.398438 160.335938 67.667969 160.75 67.945312 C 160.851562 68.597656 160.851562 68.597656 160.859375 69.445312 C 160.863281 69.765625 160.867188 70.082031 160.875 70.414062 C 160.875 70.769531 160.875 71.125 160.878906 71.480469 C 160.882812 71.855469 160.886719 72.226562 160.890625 72.601562 C 160.902344 73.617188 160.910156 74.632812 160.917969 75.648438 C 160.921875 76.496094 160.933594 77.339844 160.941406 78.1875 C 161.035156 87.429688 161.027344 96.671875 161 105.917969 C 160.804688 106.027344 160.613281 106.136719 160.410156 106.25 C 159.671875 106.671875 158.933594 107.09375 158.195312 107.511719 C 157.878906 107.695312 157.5625 107.875 157.246094 108.054688 C 155.015625 109.324219 152.800781 110.613281 150.59375 111.925781 C 147.328125 113.867188 144.042969 115.765625 140.75 117.65625 C 139.644531 118.292969 138.542969 118.925781 137.4375 119.5625 C 137.171875 119.714844 136.90625 119.867188 136.632812 120.027344 C 134.542969 121.230469 132.464844 122.453125 130.398438 123.6875 C 130.074219 123.878906 130.074219 123.878906 129.75 124.074219 C 129.5625 124.183594 129.375 124.296875 129.179688 124.414062 C 128.75 124.652344 128.75 124.652344 128.5 124.652344 C 128.289062 116.019531 128.195312 107.386719 128.109375 98.75 C 128.105469 98.464844 128.105469 98.179688 128.101562 97.886719 C 128.066406 94.316406 128.03125 90.75 128 87.179688 C 127.8125 87.078125 127.621094 86.972656 127.425781 86.863281 C 126.710938 86.46875 125.996094 86.070312 125.28125 85.675781 C 124.972656 85.503906 124.667969 85.335938 124.359375 85.164062 C 122.3125 84.035156 120.28125 82.882812 118.265625 81.699219 C 118.007812 81.550781 117.753906 81.398438 117.488281 81.246094 C 117.257812 81.109375 117.023438 80.972656 116.785156 80.832031 C 115.136719 79.867188 113.476562 78.917969 111.8125 77.96875 C 111.667969 77.886719 111.519531 77.804688 111.371094 77.71875 C 110.03125 76.953125 108.6875 76.1875 107.347656 75.425781 C 105.3125 74.269531 103.28125 73.109375 101.25 71.941406 C 100.832031 71.703125 100.832031 71.703125 100.410156 71.460938 C 99.625 71.007812 98.84375 70.554688 98.0625 70.101562 C 97.828125 69.964844 97.589844 69.832031 97.347656 69.691406 C 97.136719 69.566406 96.925781 69.441406 96.707031 69.3125 C 96.519531 69.207031 96.335938 69.097656 96.144531 68.988281 C 96.015625 68.890625 95.882812 68.792969 95.75 68.695312 C 95.75 68.53125 95.75 68.367188 95.75 68.195312 C 95.925781 68.097656 96.101562 67.996094 96.285156 67.890625 C 99.582031 66.023438 102.867188 64.140625 106.125 62.199219 C 108.417969 60.835938 110.726562 59.492188 113.046875 58.171875 C 115.234375 56.929688 117.417969 55.675781 119.59375 54.410156 C 119.835938 54.269531 120.078125 54.128906 120.324219 53.984375 C 121.578125 53.257812 122.820312 52.515625 124.050781 51.75 C 124.304688 51.597656 124.554688 51.445312 124.8125 51.285156 C 125.289062 50.992188 125.765625 50.695312 126.238281 50.394531 C 126.453125 50.261719 126.667969 50.132812 126.886719 50 C 127.070312 49.882812 127.257812 49.765625 127.449219 49.648438 C 128 49.460938 128 49.460938 128.609375 49.628906 Z M 128.609375 49.628906 "/>
<path style=" stroke:none;fill-rule:nonzero;fill:rgb(91.764706%,39.607843%,34.509804%);fill-opacity:1;" d="M 6.75 5.746094 C 78.855469 5.746094 150.960938 5.746094 225.25 5.746094 C 225.25 106.5625 225.25 207.382812 225.25 311.253906 C 153.144531 311.253906 81.039062 311.253906 6.75 311.253906 C 6.75 210.4375 6.75 109.617188 6.75 5.746094 Z M 8.75 7.492188 C 8.75 107.15625 8.75 206.820312 8.75 309.503906 C 79.617188 309.503906 150.484375 309.503906 223.5 309.503906 C 223.5 209.839844 223.5 110.179688 223.5 7.492188 C 152.632812 7.492188 81.765625 7.492188 8.75 7.492188 Z M 8.75 7.492188 "/>
<path style=" stroke:none;fill-rule:nonzero;fill:rgb(92.156863%,43.137255%,38.039216%);fill-opacity:1;" d="M 94.25 216.578125 C 99.53125 216.578125 104.808594 216.578125 110.25 216.578125 C 110.167969 217.320312 110.085938 218.0625 110 218.828125 C 105.546875 218.828125 101.089844 218.828125 96.5 218.828125 C 96.5 220.804688 96.5 222.785156 96.5 224.820312 C 100.460938 224.820312 104.421875 224.820312 108.5 224.820312 C 108.5 225.480469 108.5 226.140625 108.5 226.820312 C 108.25 227.070312 108.25 227.070312 107.773438 227.101562 C 107.566406 227.101562 107.359375 227.097656 107.144531 227.097656 C 106.90625 227.097656 106.671875 227.097656 106.429688 227.097656 C 106.175781 227.097656 105.917969 227.097656 105.65625 227.09375 C 105.394531 227.09375 105.132812 227.09375 104.867188 227.09375 C 104.03125 227.09375 103.195312 227.089844 102.359375 227.085938 C 101.792969 227.085938 101.230469 227.082031 100.664062 227.082031 C 99.277344 227.078125 97.886719 227.074219 96.5 227.070312 C 96.5 229.046875 96.5 231.027344 96.5 233.066406 C 101.039062 233.066406 105.574219 233.066406 110.25 233.066406 C 110.167969 233.808594 110.085938 234.550781 110 235.3125 C 104.800781 235.3125 99.605469 235.3125 94.25 235.3125 C 94.25 229.132812 94.25 222.949219 94.25 216.578125 Z M 94.25 216.578125 "/>
<path style=" stroke:none;fill-rule:nonzero;fill:rgb(92.156863%,42.745098%,37.647059%);fill-opacity:1;" d="M 95 246.054688 C 98.410156 246.023438 98.410156 246.023438 101.890625 245.992188 C 102.964844 245.980469 102.964844 245.980469 104.058594 245.964844 C 104.628906 245.960938 105.195312 245.960938 105.765625 245.957031 C 106.207031 245.949219 106.207031 245.949219 106.65625 245.941406 C 108.332031 245.941406 109.394531 246.039062 110.75 247.054688 C 111.1875 247.554688 111.1875 247.554688 111.46875 248.054688 C 111.613281 248.300781 111.613281 248.300781 111.765625 248.554688 C 112.632812 250.394531 112.53125 252.902344 111.9375 254.8125 C 111.453125 256.027344 110.894531 256.816406 109.75 257.484375 C 108.765625 257.894531 107.964844 258.078125 106.898438 258.074219 C 106.578125 258.074219 106.578125 258.074219 106.246094 258.074219 C 106.019531 258.074219 105.789062 258.070312 105.550781 258.070312 C 105.195312 258.070312 105.195312 258.070312 104.832031 258.070312 C 104.074219 258.066406 103.320312 258.066406 102.5625 258.0625 C 102.050781 258.058594 101.535156 258.058594 101.023438 258.058594 C 99.765625 258.054688 98.507812 258.050781 97.25 258.046875 C 97.25 260.273438 97.25 262.496094 97.25 264.789062 C 96.507812 264.789062 95.765625 264.789062 95 264.789062 C 95 258.609375 95 252.425781 95 246.054688 Z M 97.25 248.304688 C 97.25 250.777344 97.25 253.25 97.25 255.796875 C 98.605469 255.808594 99.964844 255.820312 101.320312 255.824219 C 101.78125 255.828125 102.242188 255.832031 102.703125 255.835938 C 103.367188 255.839844 104.03125 255.84375 104.695312 255.847656 C 104.902344 255.847656 105.105469 255.851562 105.316406 255.855469 C 106.554688 255.855469 107.585938 255.742188 108.75 255.296875 C 109.917969 253.855469 110.167969 252.601562 110 250.800781 C 109.707031 249.671875 109.257812 248.917969 108.25 248.304688 C 107.707031 248.195312 107.707031 248.195312 107.125 248.21875 C 106.90625 248.21875 106.6875 248.21875 106.460938 248.21875 C 106.105469 248.222656 106.105469 248.222656 105.746094 248.230469 C 105.503906 248.230469 105.261719 248.234375 105.011719 248.234375 C 104.234375 248.238281 103.460938 248.246094 102.6875 248.257812 C 102.164062 248.261719 101.636719 248.265625 101.109375 248.265625 C 99.824219 248.273438 98.539062 248.289062 97.25 248.304688 Z M 97.25 248.304688 "/>
<path style=" stroke:none;fill-rule:nonzero;fill:rgb(92.156863%,43.529412%,38.431373%);fill-opacity:1;" d="M 147.515625 246.03125 C 147.824219 246.035156 147.824219 246.035156 148.140625 246.039062 C 148.347656 246.042969 148.554688 246.042969 148.765625 246.046875 C 148.925781 246.050781 149.085938 246.050781 149.25 246.054688 C 149.328125 246.210938 149.40625 246.367188 149.484375 246.53125 C 151.433594 250.457031 151.433594 250.457031 153.453125 254.34375 C 154.480469 256.285156 155.503906 258.226562 156.519531 260.171875 C 156.695312 260.5 156.867188 260.832031 157.039062 261.160156 C 157.285156 261.621094 157.527344 262.085938 157.765625 262.550781 C 157.910156 262.820312 158.050781 263.089844 158.195312 263.367188 C 158.5 264.042969 158.5 264.042969 158.5 264.789062 C 157.675781 264.789062 156.851562 264.789062 156 264.789062 C 155.664062 264.175781 155.332031 263.5625 155 262.949219 C 154.90625 262.773438 154.808594 262.597656 154.710938 262.417969 C 154 261.101562 154 261.101562 154 260.542969 C 150.121094 260.625 146.246094 260.707031 142.25 260.792969 C 141.589844 262.03125 140.929688 263.265625 140.25 264.539062 C 140 264.789062 140 264.789062 139.429688 264.816406 C 139.199219 264.8125 138.96875 264.808594 138.734375 264.804688 C 138.390625 264.804688 138.390625 264.804688 138.039062 264.800781 C 137.859375 264.796875 137.683594 264.792969 137.5 264.789062 C 137.90625 263.402344 138.539062 262.167969 139.203125 260.886719 C 139.378906 260.539062 139.378906 260.539062 139.5625 260.183594 C 139.945312 259.433594 140.332031 258.6875 140.71875 257.9375 C 140.980469 257.425781 141.246094 256.914062 141.507812 256.402344 C 142.253906 254.949219 143 253.5 143.75 252.050781 C 143.847656 251.863281 143.945312 251.675781 144.042969 251.480469 C 144.558594 250.484375 145.074219 249.488281 145.59375 248.492188 C 145.773438 248.148438 145.773438 248.148438 145.953125 247.800781 C 146.058594 247.597656 146.164062 247.398438 146.273438 247.191406 C 146.359375 247.023438 146.445312 246.855469 146.539062 246.683594 C 146.886719 246.0625 146.886719 246.0625 147.515625 246.03125 Z M 148 249.304688 C 147.535156 250.140625 147.070312 250.976562 146.609375 251.816406 C 146.480469 252.046875 146.351562 252.277344 146.21875 252.515625 C 145.132812 254.496094 144.214844 256.484375 143.25 258.546875 C 146.386719 258.546875 149.519531 258.546875 152.75 258.546875 C 152.398438 257.496094 152.085938 256.667969 151.578125 255.714844 C 151.386719 255.34375 151.386719 255.34375 151.1875 254.96875 C 151.054688 254.71875 150.917969 254.464844 150.78125 254.207031 C 150.515625 253.703125 150.25 253.203125 149.984375 252.699219 C 149.859375 252.464844 149.734375 252.226562 149.605469 251.980469 C 149.140625 251.09375 148.695312 250.199219 148.25 249.304688 C 148.167969 249.304688 148.085938 249.304688 148 249.304688 Z M 148 249.304688 "/>
<path style=" stroke:none;fill-rule:nonzero;fill:rgb(92.156863%,43.529412%,38.431373%);fill-opacity:1;" d="M 81.015625 246.03125 C 81.324219 246.035156 81.324219 246.035156 81.640625 246.039062 C 81.847656 246.042969 82.054688 246.042969 82.265625 246.046875 C 82.425781 246.050781 82.585938 246.050781 82.75 246.054688 C 82.828125 246.210938 82.90625 246.367188 82.984375 246.53125 C 84.933594 250.457031 84.933594 250.457031 86.953125 254.34375 C 87.980469 256.285156 89.003906 258.226562 90.019531 260.171875 C 90.195312 260.5 90.367188 260.832031 90.539062 261.160156 C 90.785156 261.621094 91.027344 262.085938 91.265625 262.550781 C 91.410156 262.820312 91.550781 263.089844 91.695312 263.367188 C 92 264.042969 92 264.042969 92 264.789062 C 91.175781 264.789062 90.351562 264.789062 89.5 264.789062 C 89.164062 264.175781 88.832031 263.5625 88.5 262.949219 C 88.40625 262.773438 88.308594 262.597656 88.210938 262.417969 C 87.5 261.101562 87.5 261.101562 87.5 260.542969 C 83.621094 260.625 79.746094 260.707031 75.75 260.792969 C 75.089844 262.03125 74.429688 263.265625 73.75 264.539062 C 73.5 264.789062 73.5 264.789062 72.929688 264.816406 C 72.699219 264.8125 72.46875 264.808594 72.234375 264.804688 C 71.890625 264.804688 71.890625 264.804688 71.539062 264.800781 C 71.359375 264.796875 71.183594 264.792969 71 264.789062 C 71.40625 263.402344 72.039062 262.167969 72.703125 260.886719 C 72.878906 260.539062 72.878906 260.539062 73.0625 260.183594 C 73.445312 259.433594 73.832031 258.6875 74.21875 257.9375 C 74.480469 257.425781 74.746094 256.914062 75.007812 256.402344 C 75.753906 254.949219 76.5 253.5 77.25 252.050781 C 77.347656 251.863281 77.445312 251.675781 77.542969 251.480469 C 78.058594 250.484375 78.574219 249.488281 79.09375 248.492188 C 79.273438 248.148438 79.273438 248.148438 79.453125 247.800781 C 79.558594 247.597656 79.664062 247.398438 79.773438 247.191406 C 79.859375 247.023438 79.945312 246.855469 80.039062 246.683594 C 80.386719 246.0625 80.386719 246.0625 81.015625 246.03125 Z M 81.5 249.304688 C 81.035156 250.140625 80.570312 250.976562 80.109375 251.816406 C 79.980469 252.046875 79.851562 252.277344 79.71875 252.515625 C 78.632812 254.496094 77.714844 256.484375 76.75 258.546875 C 79.886719 258.546875 83.019531 258.546875 86.25 258.546875 C 85.898438 257.496094 85.585938 256.667969 85.078125 255.714844 C 84.886719 255.34375 84.886719 255.34375 84.6875 254.96875 C 84.554688 254.71875 84.417969 254.464844 84.28125 254.207031 C 84.015625 253.703125 83.75 253.203125 83.484375 252.699219 C 83.359375 252.464844 83.234375 252.226562 83.105469 251.980469 C 82.640625 251.09375 82.195312 250.199219 81.75 249.304688 C 81.667969 249.304688 81.585938 249.304688 81.5 249.304688 Z M 81.5 249.304688 "/>
<path style=" stroke:none;fill-rule:nonzero;fill:rgb(92.156863%,42.352941%,37.254902%);fill-opacity:1;" d="M 134.75 216.578125 C 135.492188 216.578125 136.234375 216.578125 137 216.578125 C 137 219.300781 137 222.019531 137 224.820312 C 141.539062 224.820312 146.074219 224.820312 150.75 224.820312 C 150.75 222.101562 150.75 219.382812 150.75 216.578125 C 151.492188 216.578125 152.234375 216.578125 153 216.578125 C 153 222.761719 153 228.945312 153 235.3125 C 152.257812 235.3125 151.515625 235.3125 150.75 235.3125 C 150.75 232.59375 150.75 229.875 150.75 227.070312 C 146.210938 227.070312 141.675781 227.070312 137 227.070312 C 137 229.789062 137 232.511719 137 235.3125 C 136.257812 235.3125 135.515625 235.3125 134.75 235.3125 C 134.75 229.132812 134.75 222.949219 134.75 216.578125 Z M 134.75 216.578125 "/>
<path style=" stroke:none;fill-rule:nonzero;fill:rgb(92.156863%,44.313725%,39.215686%);fill-opacity:1;" d="M 123.324219 216.246094 C 123.875 216.25 124.421875 216.25 124.96875 216.25 C 126.867188 216.253906 128.648438 216.371094 130.5 216.828125 C 130.5 217.570312 130.5 218.3125 130.5 219.078125 C 130.324219 219.058594 130.148438 219.042969 129.96875 219.023438 C 127.960938 218.839844 125.96875 218.773438 123.953125 218.765625 C 123.652344 218.757812 123.351562 218.753906 123.039062 218.75 C 120.988281 218.738281 119.320312 218.933594 117.546875 219.996094 C 115.808594 221.835938 115.671875 224 115.695312 226.425781 C 115.808594 228.308594 116.324219 230.246094 117.75 231.566406 C 119.351562 232.566406 120.785156 233.097656 122.671875 233.097656 C 123.089844 233.097656 123.089844 233.097656 123.515625 233.101562 C 123.804688 233.097656 124.09375 233.097656 124.390625 233.097656 C 124.671875 233.097656 124.957031 233.097656 125.246094 233.101562 C 127.011719 233.097656 128.746094 233.011719 130.5 232.816406 C 130.5 233.558594 130.5 234.300781 130.5 235.0625 C 128.71875 235.953125 126.074219 235.617188 124.140625 235.625 C 123.667969 235.632812 123.667969 235.632812 123.1875 235.640625 C 120.320312 235.652344 117.976562 235.203125 115.75 233.316406 C 113.347656 230.785156 113.148438 227.773438 113.195312 224.445312 C 113.277344 222.066406 113.957031 219.84375 115.6875 218.148438 C 117.945312 216.289062 120.523438 216.210938 123.324219 216.246094 Z M 123.324219 216.246094 "/>
<path style=" stroke:none;fill-rule:nonzero;fill:rgb(92.156863%,43.921569%,39.215686%);fill-opacity:1;" d="M 60.792969 245.773438 C 60.964844 245.773438 61.132812 245.773438 61.308594 245.773438 C 61.667969 245.769531 62.027344 245.773438 62.390625 245.773438 C 62.933594 245.773438 63.476562 245.773438 64.019531 245.769531 C 68.675781 245.769531 68.675781 245.769531 69.75 246.304688 C 69.667969 247.046875 69.585938 247.789062 69.5 248.554688 C 69.34375 248.535156 69.183594 248.519531 69.023438 248.5 C 67.097656 248.308594 65.183594 248.242188 63.25 248.226562 C 62.800781 248.214844 62.800781 248.214844 62.34375 248.203125 C 60.285156 248.1875 58.132812 248.332031 56.5 249.734375 C 54.726562 251.609375 54.871094 253.90625 54.921875 256.328125 C 55.015625 258.285156 55.496094 259.644531 56.90625 261.027344 C 58.78125 262.695312 61.386719 262.648438 63.75 262.605469 C 64.167969 262.601562 64.167969 262.601562 64.59375 262.601562 C 66.242188 262.585938 67.859375 262.480469 69.5 262.292969 C 69.625 263.40625 69.625 263.40625 69.75 264.539062 C 67.628906 265.015625 65.578125 265.132812 63.40625 265.132812 C 63.101562 265.140625 62.792969 265.144531 62.476562 265.152344 C 59.953125 265.160156 57.15625 264.828125 55.121094 263.175781 C 52.882812 260.871094 52.367188 258.175781 52.390625 255.0625 C 52.386719 254.8125 52.378906 254.558594 52.375 254.300781 C 52.378906 251.8125 52.984375 249.570312 54.734375 247.734375 C 56.554688 246.214844 58.472656 245.773438 60.792969 245.773438 Z M 60.792969 245.773438 "/>
<path style=" stroke:none;fill-rule:nonzero;fill:rgb(92.156863%,43.137255%,38.039216%);fill-opacity:1;" d="M 122 246.054688 C 127.941406 246.054688 133.878906 246.054688 140 246.054688 C 139.917969 246.796875 139.835938 247.539062 139.75 248.304688 C 137.273438 248.304688 134.800781 248.304688 132.25 248.304688 C 132.25 253.746094 132.25 259.183594 132.25 264.789062 C 131.507812 264.789062 130.765625 264.789062 130 264.789062 C 130 259.351562 130 253.910156 130 248.304688 C 127.359375 248.304688 124.71875 248.304688 122 248.304688 C 122 247.5625 122 246.820312 122 246.054688 Z M 122 246.054688 "/>
<path style=" stroke:none;fill-rule:nonzero;fill:rgb(92.156863%,42.745098%,37.647059%);fill-opacity:1;" d="M 73.25 216.578125 C 79.109375 216.578125 84.964844 216.578125 91 216.578125 C 91 217.238281 91 217.898438 91 218.578125 C 90.917969 218.660156 90.835938 218.742188 90.75 218.828125 C 88.273438 218.828125 85.800781 218.828125 83.25 218.828125 C 83.25 224.265625 83.25 229.707031 83.25 235.3125 C 82.507812 235.3125 81.765625 235.3125 81 235.3125 C 81 229.875 81 224.433594 81 218.828125 C 78.441406 218.828125 75.886719 218.828125 73.25 218.828125 C 73.25 218.085938 73.25 217.34375 73.25 216.578125 Z M 73.25 216.578125 "/>
<path style=" stroke:none;fill-rule:nonzero;fill:rgb(92.156863%,43.137255%,38.039216%);fill-opacity:1;" d="M 161.5 246.054688 C 162.242188 246.054688 162.984375 246.054688 163.75 246.054688 C 163.75 251.496094 163.75 256.9375 163.75 262.542969 C 168.289062 262.542969 172.824219 262.542969 177.5 262.542969 C 177.417969 263.285156 177.335938 264.027344 177.25 264.789062 C 172.050781 264.789062 166.855469 264.789062 161.5 264.789062 C 161.5 258.609375 161.5 252.425781 161.5 246.054688 Z M 161.5 246.054688 "/>
<path style=" stroke:none;fill-rule:nonzero;fill:rgb(94.117647%,58.823529%,55.294118%);fill-opacity:1;" d="M 30.75 277.03125 C 32 277.03125 32 277.03125 32.480469 277.507812 C 32.632812 277.734375 32.78125 277.957031 32.9375 278.1875 C 33.105469 278.433594 33.273438 278.679688 33.449219 278.933594 C 33.632812 279.214844 33.816406 279.496094 34 279.777344 C 34.101562 279.933594 34.203125 280.089844 34.308594 280.253906 C 34.964844 281.253906 35.609375 282.261719 36.25 283.277344 C 36.988281 282.582031 37.535156 281.890625 38.070312 281.03125 C 38.21875 280.796875 38.367188 280.566406 38.519531 280.324219 C 38.832031 279.832031 39.140625 279.339844 39.445312 278.847656 C 39.59375 278.613281 39.742188 278.382812 39.898438 278.144531 C 40.03125 277.929688 40.164062 277.714844 40.300781 277.496094 C 40.523438 277.265625 40.523438 277.265625 40.75 277.03125 C 41.164062 277.03125 41.574219 277.03125 42 277.03125 C 42 280.410156 42 283.789062 42 287.273438 C 41.585938 287.273438 41.175781 287.273438 40.75 287.273438 C 40.667969 284.964844 40.585938 282.65625 40.5 280.277344 C 39.492188 281.917969 39.492188 281.917969 38.496094 283.566406 C 38.367188 283.769531 38.238281 283.972656 38.109375 284.179688 C 37.980469 284.390625 37.851562 284.601562 37.71875 284.816406 C 37.25 285.273438 37.25 285.273438 36.484375 285.378906 C 35.75 285.273438 35.75 285.273438 35.15625 284.6875 C 34.976562 284.429688 34.796875 284.167969 34.609375 283.902344 C 34.429688 283.644531 34.246094 283.390625 34.0625 283.128906 C 33.441406 282.1875 32.847656 281.234375 32.25 280.277344 C 32.167969 282.585938 32.085938 284.894531 32 287.273438 C 31.585938 287.273438 31.175781 287.273438 30.75 287.273438 C 30.75 283.894531 30.75 280.511719 30.75 277.03125 Z M 30.75 277.03125 "/>
<path style=" stroke:none;fill-rule:nonzero;fill:rgb(94.509804%,61.960784%,58.823529%);fill-opacity:1;" d="M 83.65625 276.722656 C 83.921875 276.722656 84.183594 276.722656 84.457031 276.726562 C 84.863281 276.730469 84.863281 276.730469 85.28125 276.734375 C 85.691406 276.734375 85.691406 276.734375 86.113281 276.734375 C 88.144531 276.746094 88.144531 276.746094 89 277.03125 C 89 277.441406 89 277.855469 89 278.28125 C 88.84375 278.277344 88.6875 278.273438 88.527344 278.269531 C 87.808594 278.253906 87.09375 278.242188 86.375 278.234375 C 86.128906 278.226562 85.882812 278.21875 85.632812 278.214844 C 84.070312 278.199219 82.917969 278.355469 81.5 279.027344 C 80.605469 280.011719 80.5 281.238281 80.5 282.527344 C 80.613281 283.519531 80.835938 284.3125 81.453125 285.117188 C 82.644531 286.003906 83.78125 286.195312 85.25 286.023438 C 86.292969 285.785156 87.035156 285.527344 87.734375 284.695312 C 88.074219 283.910156 88.074219 283.910156 88.25 282.527344 C 86.847656 282.527344 85.445312 282.527344 84 282.527344 C 84.082031 282.113281 84.164062 281.703125 84.25 281.277344 C 85.984375 281.277344 87.714844 281.277344 89.5 281.277344 C 89.5 283.257812 89.5 285.234375 89.5 287.273438 C 89.085938 287.273438 88.675781 287.273438 88.25 287.273438 C 88.167969 287.027344 88.085938 286.777344 88 286.523438 C 87.777344 286.699219 87.777344 286.699219 87.546875 286.882812 C 86.082031 287.929688 83.972656 287.640625 82.25 287.523438 C 81.023438 287.226562 80.300781 286.722656 79.640625 285.648438 C 78.816406 283.800781 78.695312 281.691406 79.125 279.703125 C 79.597656 278.5 80.414062 277.566406 81.578125 277 C 82.3125 276.761719 82.890625 276.71875 83.65625 276.722656 Z M 83.65625 276.722656 "/>
<path style=" stroke:none;fill-rule:nonzero;fill:rgb(94.509804%,61.176471%,58.039216%);fill-opacity:1;" d="M 56.25 277.03125 C 57.5 277.03125 57.5 277.03125 58 277.398438 C 58.230469 277.648438 58.230469 277.648438 58.46875 277.90625 C 58.640625 278.089844 58.8125 278.273438 58.992188 278.460938 C 59.59375 279.132812 60.195312 279.804688 60.785156 280.492188 C 61.507812 281.324219 62.253906 282.136719 62.996094 282.953125 C 63.4375 283.457031 63.847656 283.988281 64.25 284.523438 C 64.332031 282.050781 64.414062 279.578125 64.5 277.03125 C 64.996094 277.03125 65.488281 277.03125 66 277.03125 C 66 280.410156 66 283.789062 66 287.273438 C 64.5 287.273438 64.5 287.273438 63.8125 286.6875 C 63.585938 286.429688 63.359375 286.164062 63.140625 285.898438 C 63.019531 285.761719 62.902344 285.625 62.777344 285.484375 C 62.433594 285.082031 62.089844 284.679688 61.75 284.273438 C 61.441406 283.925781 61.136719 283.578125 60.828125 283.230469 C 60.554688 282.914062 60.28125 282.601562 60 282.277344 C 59.339844 281.535156 58.679688 280.792969 58 280.027344 C 57.917969 282.417969 57.835938 284.808594 57.75 287.273438 C 57.253906 287.273438 56.761719 287.273438 56.25 287.273438 C 56.25 283.894531 56.25 280.511719 56.25 277.03125 Z M 56.25 277.03125 "/>
<path style=" stroke:none;fill-rule:nonzero;fill:rgb(94.117647%,58.823529%,55.294118%);fill-opacity:1;" d="M 141.75 277.03125 C 143.003906 277.011719 144.257812 276.988281 145.546875 276.96875 C 146.136719 276.953125 146.136719 276.953125 146.738281 276.941406 C 147.050781 276.9375 147.363281 276.9375 147.683594 276.933594 C 148 276.929688 148.320312 276.921875 148.648438 276.917969 C 149.644531 277.050781 150.042969 277.328125 150.75 278.03125 C 151.34375 279.050781 151.394531 280.125 151.25 281.277344 C 150.957031 282.296875 150.660156 282.917969 149.75 283.527344 C 149.253906 283.625 148.753906 283.707031 148.25 283.777344 C 148.449219 283.984375 148.648438 284.195312 148.851562 284.414062 C 149.109375 284.691406 149.367188 284.964844 149.625 285.242188 C 149.757812 285.382812 149.886719 285.519531 150.023438 285.664062 C 151 286.714844 151 286.714844 151 287.273438 C 149.945312 287.371094 149.425781 287.402344 148.558594 286.761719 C 148.355469 286.539062 148.148438 286.316406 147.9375 286.085938 C 147.730469 285.867188 147.523438 285.644531 147.308594 285.417969 C 146.75 284.773438 146.75 284.773438 146.398438 284.203125 C 145.582031 283.324219 144.117188 283.574219 143 283.527344 C 143 284.761719 143 286 143 287.273438 C 142.585938 287.273438 142.175781 287.273438 141.75 287.273438 C 141.75 283.894531 141.75 280.511719 141.75 277.03125 Z M 143 278.28125 C 143 279.597656 143 280.917969 143 282.277344 C 143.9375 282.304688 144.875 282.324219 145.8125 282.339844 C 146.210938 282.351562 146.210938 282.351562 146.617188 282.363281 C 147.003906 282.371094 147.003906 282.371094 147.394531 282.375 C 147.628906 282.378906 147.867188 282.382812 148.109375 282.390625 C 148.9375 282.242188 149.226562 281.921875 149.75 281.277344 C 149.914062 280.785156 149.914062 280.785156 149.890625 280.277344 C 149.894531 280.113281 149.902344 279.949219 149.90625 279.777344 C 149.640625 278.929688 149.273438 278.710938 148.5 278.28125 C 147.554688 278.160156 146.625 278.1875 145.671875 278.21875 C 145.414062 278.222656 145.160156 278.226562 144.894531 278.230469 C 144.261719 278.242188 143.632812 278.261719 143 278.28125 Z M 143 278.28125 "/>
<path style=" stroke:none;fill-rule:nonzero;fill:rgb(94.509804%,60.392157%,57.254902%);fill-opacity:1;" d="M 102.5 277.03125 C 103.625 277.015625 104.75 277 105.90625 276.984375 C 106.257812 276.976562 106.609375 276.96875 106.972656 276.964844 C 107.253906 276.960938 107.535156 276.960938 107.820312 276.957031 C 108.25 276.953125 108.25 276.953125 108.6875 276.945312 C 109.90625 277.074219 110.722656 277.488281 111.5625 278.375 C 112.414062 279.648438 112.585938 280.746094 112.578125 282.261719 C 112.582031 282.433594 112.585938 282.605469 112.589844 282.785156 C 112.589844 284.152344 112.308594 285.175781 111.367188 286.183594 C 110.15625 287.109375 109.636719 287.304688 108.117188 287.296875 C 107.820312 287.296875 107.527344 287.296875 107.226562 287.296875 C 106.664062 287.292969 106.664062 287.292969 106.09375 287.289062 C 104.90625 287.28125 103.722656 287.277344 102.5 287.273438 C 102.5 283.894531 102.5 280.511719 102.5 277.03125 Z M 104 278.28125 C 104 280.835938 104 283.390625 104 286.023438 C 104.753906 286.039062 105.503906 286.054688 106.28125 286.070312 C 106.515625 286.078125 106.75 286.085938 106.992188 286.089844 C 108.269531 286.105469 109.144531 285.988281 110.25 285.273438 C 111.257812 284.160156 111.324219 283.097656 111.304688 281.652344 C 111.199219 280.449219 110.746094 279.757812 109.875 278.953125 C 109.042969 278.390625 108.425781 278.25 107.441406 278.253906 C 107.171875 278.257812 107.171875 278.257812 106.894531 278.257812 C 106.550781 278.261719 106.550781 278.261719 106.203125 278.265625 C 105.476562 278.269531 104.75 278.273438 104 278.28125 Z M 104 278.28125 "/>
<path style=" stroke:none;fill-rule:nonzero;fill:rgb(92.156863%,41.960784%,36.862745%);fill-opacity:1;" d="M 116.5 246.054688 C 117.242188 246.054688 117.984375 246.054688 118.75 246.054688 C 118.75 252.238281 118.75 258.421875 118.75 264.789062 C 118.007812 264.789062 117.265625 264.789062 116.5 264.789062 C 116.5 258.609375 116.5 252.425781 116.5 246.054688 Z M 116.5 246.054688 "/>
<path style=" stroke:none;fill-rule:nonzero;fill:rgb(94.117647%,59.215686%,55.686275%);fill-opacity:1;" d="M 180.25 277.03125 C 183.136719 277.03125 186.023438 277.03125 189 277.03125 C 189 277.441406 189 277.855469 189 278.28125 C 186.609375 278.28125 184.214844 278.28125 181.75 278.28125 C 181.75 279.351562 181.75 280.421875 181.75 281.527344 C 183.894531 281.527344 186.039062 281.527344 188.25 281.527344 C 188.25 281.9375 188.25 282.351562 188.25 282.777344 C 186.105469 282.777344 183.960938 282.777344 181.75 282.777344 C 181.75 283.847656 181.75 284.917969 181.75 286.023438 C 184.140625 286.023438 186.535156 286.023438 189 286.023438 C 189 286.4375 189 286.847656 189 287.273438 C 186.113281 287.273438 183.226562 287.273438 180.25 287.273438 C 180.25 283.894531 180.25 280.511719 180.25 277.03125 Z M 180.25 277.03125 "/>
<path style=" stroke:none;fill-rule:nonzero;fill:rgb(94.117647%,58.823529%,55.686275%);fill-opacity:1;" d="M 91.75 277.03125 C 94.636719 277.03125 97.523438 277.03125 100.5 277.03125 C 100.5 277.441406 100.5 277.855469 100.5 278.28125 C 98.109375 278.28125 95.714844 278.28125 93.25 278.28125 C 93.25 279.351562 93.25 280.421875 93.25 281.527344 C 95.394531 281.527344 97.539062 281.527344 99.75 281.527344 C 99.667969 281.9375 99.585938 282.351562 99.5 282.777344 C 97.4375 282.777344 95.375 282.777344 93.25 282.777344 C 93.25 283.847656 93.25 284.917969 93.25 286.023438 C 95.640625 286.023438 98.035156 286.023438 100.5 286.023438 C 100.5 286.4375 100.5 286.847656 100.5 287.273438 C 97.613281 287.273438 94.726562 287.273438 91.75 287.273438 C 91.75 283.894531 91.75 280.511719 91.75 277.03125 Z M 91.75 277.03125 "/>
<path style=" stroke:none;fill-rule:nonzero;fill:rgb(94.117647%,60%,56.470588%);fill-opacity:1;" d="M 194 276.746094 C 194.242188 276.746094 194.484375 276.746094 194.734375 276.746094 C 195.113281 276.75 195.113281 276.75 195.5 276.75 C 195.753906 276.75 196.003906 276.746094 196.265625 276.746094 C 196.507812 276.746094 196.75 276.746094 197 276.746094 C 197.332031 276.75 197.332031 276.75 197.671875 276.75 C 198.25 276.78125 198.25 276.78125 199 277.03125 C 199 277.441406 199 277.855469 199 278.28125 C 198.859375 278.277344 198.714844 278.273438 198.570312 278.269531 C 197.914062 278.253906 197.261719 278.242188 196.609375 278.234375 C 196.386719 278.226562 196.160156 278.21875 195.929688 278.214844 C 194.5 278.199219 193.519531 278.367188 192.25 279.027344 C 192.25 279.523438 192.25 280.019531 192.25 280.527344 C 193.902344 281.054688 195.550781 281.460938 197.253906 281.792969 C 198.105469 282.058594 198.601562 282.421875 199.25 283.027344 C 199.683594 283.890625 199.617188 284.828125 199.5 285.773438 C 198.90625 286.804688 198.359375 287.160156 197.25 287.523438 C 196.570312 287.582031 196.570312 287.582031 195.84375 287.582031 C 195.578125 287.578125 195.316406 287.578125 195.042969 287.578125 C 194.773438 287.574219 194.5 287.574219 194.21875 287.570312 C 193.945312 287.570312 193.671875 287.570312 193.386719 287.570312 C 191.355469 287.558594 191.355469 287.558594 190.5 287.273438 C 190.5 286.859375 190.5 286.449219 190.5 286.023438 C 190.660156 286.027344 190.816406 286.027344 190.980469 286.03125 C 191.707031 286.042969 192.429688 286.046875 193.15625 286.054688 C 193.40625 286.058594 193.65625 286.0625 193.914062 286.066406 C 195.753906 286.082031 195.753906 286.082031 197.5 285.523438 C 197.855469 285.023438 197.855469 285.023438 198 284.523438 C 197.113281 283.375 196.140625 283.261719 194.78125 283.027344 C 193.308594 282.765625 192.183594 282.511719 191 281.527344 C 190.371094 280.628906 190.453125 279.878906 190.597656 278.828125 C 190.835938 277.972656 191.308594 277.558594 192 277.03125 C 192.738281 276.785156 193.226562 276.75 194 276.746094 Z M 194 276.746094 "/>
<path style=" stroke:none;fill-rule:nonzero;fill:rgb(94.509804%,61.960784%,58.823529%);fill-opacity:1;" d="M 124.890625 276.734375 C 125.246094 276.734375 125.246094 276.734375 125.605469 276.734375 C 126.617188 276.742188 127.523438 276.75 128.5 277.03125 C 128.417969 277.441406 128.335938 277.855469 128.25 278.28125 C 128.035156 278.277344 128.035156 278.277344 127.816406 278.273438 C 127.15625 278.261719 126.5 278.253906 125.84375 278.25 C 125.617188 278.246094 125.390625 278.242188 125.160156 278.234375 C 123.917969 278.226562 122.914062 278.289062 121.75 278.78125 C 121.667969 279.273438 121.585938 279.769531 121.5 280.277344 C 122.757812 281.175781 124.089844 281.34375 125.578125 281.597656 C 126.964844 281.871094 127.785156 282.222656 128.75 283.277344 C 129.027344 284.21875 128.96875 285.070312 128.75 286.023438 C 128.171875 286.847656 127.449219 287.207031 126.5 287.523438 C 126.046875 287.546875 125.59375 287.554688 125.140625 287.554688 C 124.742188 287.554688 124.742188 287.554688 124.335938 287.558594 C 124.0625 287.554688 123.785156 287.554688 123.5 287.554688 C 123.222656 287.554688 122.945312 287.554688 122.664062 287.558594 C 122.398438 287.554688 122.132812 287.554688 121.859375 287.554688 C 121.617188 287.554688 121.375 287.554688 121.125 287.554688 C 120.5 287.523438 120.5 287.523438 119.75 287.273438 C 119.75 286.859375 119.75 286.449219 119.75 286.023438 C 119.917969 286.027344 120.082031 286.027344 120.253906 286.03125 C 121.011719 286.042969 121.773438 286.046875 122.53125 286.054688 C 122.792969 286.058594 123.054688 286.0625 123.324219 286.066406 C 124.648438 286.074219 125.765625 286.066406 127 285.523438 C 127.191406 284.9375 127.191406 284.9375 127.25 284.273438 C 126.742188 283.613281 126.304688 283.414062 125.496094 283.261719 C 125.203125 283.203125 125.203125 283.203125 124.90625 283.140625 C 124.707031 283.101562 124.503906 283.066406 124.296875 283.027344 C 122.925781 282.765625 121.707031 282.515625 120.5 281.777344 C 119.792969 280.714844 119.839844 279.773438 120 278.53125 C 121.105469 276.5625 122.871094 276.707031 124.890625 276.734375 Z M 124.890625 276.734375 "/>
<path style=" stroke:none;fill-rule:nonzero;fill:rgb(92.941176%,50.196078%,45.882353%);fill-opacity:1;" d="M 131 277.03125 C 133.886719 277.03125 136.773438 277.03125 139.75 277.03125 C 139.75 277.441406 139.75 277.855469 139.75 278.28125 C 137.273438 278.28125 134.800781 278.28125 132.25 278.28125 C 132.25 279.351562 132.25 280.421875 132.25 281.527344 C 134.394531 281.527344 136.539062 281.527344 138.75 281.527344 C 138.75 281.9375 138.75 282.351562 138.75 282.777344 C 136.605469 282.777344 134.460938 282.777344 132.25 282.777344 C 132.25 283.847656 132.25 284.917969 132.25 286.023438 C 134.726562 286.023438 137.199219 286.023438 139.75 286.023438 C 139.75 286.4375 139.75 286.847656 139.75 287.273438 C 136.863281 287.273438 133.976562 287.273438 131 287.273438 C 131 283.894531 131 280.511719 131 277.03125 Z M 131 277.03125 "/>
<path style=" stroke:none;fill-rule:nonzero;fill:rgb(94.509804%,62.352941%,58.823529%);fill-opacity:1;" d="M 72.25 277.03125 C 72.746094 277.03125 73.238281 277.03125 73.75 277.03125 C 73.882812 277.300781 73.882812 277.300781 74.019531 277.574219 C 74.433594 278.410156 74.851562 279.242188 75.265625 280.074219 C 75.339844 280.222656 75.414062 280.371094 75.492188 280.527344 C 76.453125 282.453125 77.425781 284.363281 78.480469 286.242188 C 78.75 286.773438 78.75 286.773438 78.75 287.273438 C 78.171875 287.273438 77.59375 287.273438 77 287.273438 C 76.671875 286.613281 76.339844 285.953125 76 285.273438 C 74.019531 285.273438 72.039062 285.273438 70 285.273438 C 69.671875 285.933594 69.339844 286.59375 69 287.273438 C 68.421875 287.273438 67.84375 287.273438 67.25 287.273438 C 67.59375 286.144531 68.046875 285.140625 68.59375 284.09375 C 68.671875 283.941406 68.753906 283.785156 68.835938 283.625 C 69.09375 283.132812 69.351562 282.644531 69.609375 282.152344 C 69.867188 281.660156 70.121094 281.167969 70.378906 280.679688 C 70.613281 280.230469 70.84375 279.785156 71.078125 279.339844 C 71.476562 278.574219 71.867188 277.804688 72.25 277.03125 Z M 72.75 279.277344 C 72.414062 279.933594 72.082031 280.589844 71.75 281.246094 C 71.65625 281.433594 71.558594 281.617188 71.460938 281.8125 C 71.371094 281.988281 71.28125 282.167969 71.1875 282.351562 C 71.105469 282.519531 71.019531 282.683594 70.933594 282.851562 C 70.71875 283.273438 70.71875 283.273438 70.75 283.777344 C 72.234375 283.777344 73.71875 283.777344 75.25 283.777344 C 74.875 282.65625 74.5 281.722656 73.96875 280.683594 C 73.835938 280.417969 73.699219 280.15625 73.5625 279.882812 C 73.457031 279.683594 73.355469 279.484375 73.25 279.277344 C 73.085938 279.277344 72.921875 279.277344 72.75 279.277344 Z M 72.75 279.277344 "/>
<path style=" stroke:none;fill-rule:nonzero;fill:rgb(94.509804%,61.960784%,58.823529%);fill-opacity:1;" d="M 48.5 277.03125 C 49.15625 276.984375 49.15625 276.984375 49.75 277.03125 C 49.902344 277.320312 50.054688 277.605469 50.210938 277.902344 C 50.308594 278.09375 50.410156 278.28125 50.511719 278.476562 C 50.734375 278.902344 50.957031 279.324219 51.179688 279.746094 C 51.773438 280.875 52.367188 282 52.972656 283.121094 C 53.085938 283.335938 53.203125 283.550781 53.320312 283.773438 C 53.542969 284.183594 53.765625 284.597656 53.988281 285.011719 C 54.085938 285.199219 54.1875 285.386719 54.289062 285.578125 C 54.378906 285.742188 54.46875 285.90625 54.558594 286.078125 C 54.75 286.523438 54.75 286.523438 54.75 287.273438 C 54.253906 287.273438 53.761719 287.273438 53.25 287.273438 C 52.25 285.585938 52.25 285.585938 52.25 285.023438 C 50.1875 285.023438 48.125 285.023438 46 285.023438 C 45.835938 285.519531 45.671875 286.015625 45.5 286.523438 C 45.335938 286.769531 45.171875 287.019531 45 287.273438 C 44.21875 287.320312 44.21875 287.320312 43.5 287.273438 C 43.652344 286.105469 44.144531 285.152344 44.6875 284.125 C 44.824219 283.855469 44.824219 283.855469 44.96875 283.582031 C 45.164062 283.203125 45.359375 282.824219 45.558594 282.449219 C 45.859375 281.871094 46.160156 281.292969 46.457031 280.714844 C 46.648438 280.347656 46.839844 279.980469 47.03125 279.613281 C 47.121094 279.441406 47.210938 279.269531 47.300781 279.089844 C 47.675781 278.378906 48.054688 277.699219 48.5 277.03125 Z M 49 279.027344 C 48.257812 280.59375 47.515625 282.160156 46.75 283.777344 C 48.316406 283.777344 49.886719 283.777344 51.5 283.777344 C 50.386719 281.425781 50.386719 281.425781 49.25 279.027344 C 49.167969 279.027344 49.085938 279.027344 49 279.027344 Z M 49 279.027344 "/>
<path style=" stroke:none;fill-rule:nonzero;fill:rgb(94.509804%,62.352941%,58.823529%);fill-opacity:1;" d="M 173.25 276.746094 C 173.492188 276.746094 173.734375 276.746094 173.984375 276.746094 C 174.363281 276.75 174.363281 276.75 174.75 276.75 C 175.003906 276.75 175.253906 276.746094 175.515625 276.746094 C 175.757812 276.746094 176 276.746094 176.25 276.746094 C 176.582031 276.75 176.582031 276.75 176.921875 276.75 C 177.5 276.78125 177.5 276.78125 178.25 277.03125 C 178.25 277.441406 178.25 277.855469 178.25 278.28125 C 178.109375 278.277344 177.96875 278.273438 177.824219 278.269531 C 177.171875 278.253906 176.523438 278.242188 175.875 278.234375 C 175.652344 278.226562 175.429688 278.21875 175.203125 278.214844 C 173.703125 278.199219 172.609375 278.386719 171.25 279.027344 C 170.328125 280.152344 170.390625 281.421875 170.429688 282.8125 C 170.519531 283.710938 170.710938 284.296875 171.25 285.023438 C 172.332031 285.828125 173.304688 286.058594 174.636719 286.046875 C 174.847656 286.046875 175.058594 286.046875 175.277344 286.046875 C 175.496094 286.042969 175.710938 286.042969 175.9375 286.039062 C 176.160156 286.039062 176.382812 286.035156 176.609375 286.035156 C 177.15625 286.03125 177.703125 286.027344 178.25 286.023438 C 178.25 286.4375 178.25 286.847656 178.25 287.273438 C 177.296875 287.75 176.140625 287.589844 175.09375 287.601562 C 174.851562 287.609375 174.605469 287.613281 174.355469 287.621094 C 172.441406 287.640625 171.0625 287.292969 169.65625 285.960938 C 168.613281 284.199219 168.507812 282.15625 168.859375 280.171875 C 169.253906 278.710938 169.972656 277.84375 171.25 277.03125 C 171.988281 276.785156 172.476562 276.75 173.25 276.746094 Z M 173.25 276.746094 "/>
<path style=" stroke:none;fill-rule:nonzero;fill:rgb(94.509804%,62.745098%,59.607843%);fill-opacity:1;" d="M 152 277.03125 C 152.496094 277.03125 152.988281 277.03125 153.5 277.03125 C 153.976562 277.894531 154.449219 278.757812 154.921875 279.621094 C 155.054688 279.863281 155.1875 280.105469 155.324219 280.351562 C 156.167969 281.894531 156.976562 283.449219 157.75 285.023438 C 157.816406 284.898438 157.882812 284.769531 157.953125 284.640625 C 159.289062 282.097656 160.628906 279.554688 162 277.03125 C 162.496094 277.03125 162.988281 277.03125 163.5 277.03125 C 163.183594 278.03125 162.816406 278.953125 162.347656 279.890625 C 162.15625 280.269531 162.15625 280.269531 161.960938 280.660156 C 161.832031 280.917969 161.699219 281.179688 161.5625 281.449219 C 161.433594 281.707031 161.304688 281.960938 161.171875 282.226562 C 160.316406 283.925781 159.421875 285.605469 158.5 287.273438 C 158.003906 287.273438 157.511719 287.273438 157 287.273438 C 156.285156 285.894531 155.574219 284.515625 154.863281 283.136719 C 154.621094 282.667969 154.378906 282.199219 154.136719 281.730469 C 153.789062 281.058594 153.441406 280.382812 153.09375 279.710938 C 152.929688 279.394531 152.929688 279.394531 152.761719 279.074219 C 152.664062 278.878906 152.5625 278.683594 152.460938 278.480469 C 152.371094 278.308594 152.28125 278.136719 152.191406 277.960938 C 152 277.53125 152 277.53125 152 277.03125 Z M 152 277.03125 "/>
<path style=" stroke:none;fill-rule:nonzero;fill:rgb(94.901961%,63.529412%,60.392157%);fill-opacity:1;" d="M 165 277.03125 C 165.496094 277.03125 165.988281 277.03125 166.5 277.03125 C 166.5 280.410156 166.5 283.789062 166.5 287.273438 C 166.003906 287.273438 165.511719 287.273438 165 287.273438 C 165 283.894531 165 280.511719 165 277.03125 Z M 165 277.03125 "/>
<path style=" stroke:none;fill-rule:nonzero;fill:rgb(96.470588%,75.686275%,73.333333%);fill-opacity:1;" d="M 131 277.03125 C 133.886719 277.03125 136.773438 277.03125 139.75 277.03125 C 139.75 277.441406 139.75 277.855469 139.75 278.28125 C 139.625 277.785156 139.625 277.785156 139.5 277.28125 C 136.777344 277.28125 134.054688 277.28125 131.25 277.28125 C 131.25 280.496094 131.25 283.710938 131.25 287.023438 C 133.890625 287.023438 136.53125 287.023438 139.25 287.023438 C 139.25 286.859375 139.25 286.691406 139.25 286.523438 C 136.941406 286.523438 134.628906 286.523438 132.25 286.523438 C 132.25 286.359375 132.25 286.195312 132.25 286.023438 C 134.726562 286.023438 137.199219 286.023438 139.75 286.023438 C 139.75 286.4375 139.75 286.847656 139.75 287.273438 C 136.863281 287.273438 133.976562 287.273438 131 287.273438 C 131 283.894531 131 280.511719 131 277.03125 Z M 131 277.03125 "/>
<path style=" stroke:none;fill-rule:nonzero;fill:rgb(96.470588%,75.686275%,73.72549%);fill-opacity:1;" d="M 57.25 279.027344 C 57.414062 279.027344 57.578125 279.027344 57.75 279.027344 C 58.042969 279.910156 58.003906 280.5625 57.96875 281.492188 C 57.964844 281.65625 57.957031 281.820312 57.953125 281.992188 C 57.933594 282.519531 57.910156 283.046875 57.890625 283.574219 C 57.878906 283.929688 57.863281 284.289062 57.851562 284.644531 C 57.820312 285.519531 57.785156 286.398438 57.75 287.273438 C 57.585938 287.273438 57.421875 287.273438 57.25 287.273438 C 57.25 284.550781 57.25 281.832031 57.25 279.027344 Z M 57.25 279.027344 "/>
<path style=" stroke:none;fill-rule:nonzero;fill:rgb(97.254902%,80.392157%,78.431373%);fill-opacity:1;" d="M 123.25 89.429688 C 123.578125 89.511719 123.910156 89.59375 124.25 89.679688 C 123.917969 90.675781 123.503906 90.785156 122.597656 91.296875 C 122.386719 91.414062 122.386719 91.414062 122.171875 91.539062 C 121.71875 91.796875 121.265625 92.046875 120.8125 92.300781 C 120.511719 92.472656 120.210938 92.644531 119.90625 92.8125 C 119.351562 93.128906 118.792969 93.445312 118.234375 93.757812 C 117.753906 94.03125 117.277344 94.320312 116.808594 94.621094 C 116.625 94.71875 116.441406 94.820312 116.25 94.925781 C 116.085938 94.84375 115.921875 94.761719 115.75 94.675781 C 116.132812 94.445312 116.511719 94.21875 116.894531 93.988281 C 117.226562 93.789062 117.5625 93.589844 117.894531 93.386719 C 118.785156 92.851562 119.679688 92.320312 120.585938 91.804688 C 120.84375 91.652344 120.84375 91.652344 121.105469 91.5 C 121.4375 91.308594 121.769531 91.117188 122.105469 90.929688 C 122.609375 90.644531 122.609375 90.644531 123.25 90.179688 C 123.25 89.929688 123.25 89.683594 123.25 89.429688 Z M 123.25 89.429688 "/>
<path style=" stroke:none;fill-rule:nonzero;fill:rgb(99.215686%,95.686275%,95.294118%);fill-opacity:1;" d="M 195.5 276.734375 C 195.753906 276.730469 196.003906 276.726562 196.265625 276.726562 C 196.507812 276.722656 196.75 276.722656 197 276.722656 C 197.222656 276.722656 197.445312 276.722656 197.671875 276.71875 C 198.25 276.78125 198.25 276.78125 199 277.28125 C 196.773438 277.28125 194.546875 277.28125 192.25 277.28125 C 192.085938 277.609375 191.921875 277.941406 191.75 278.28125 C 191.503906 278.363281 191.253906 278.445312 191 278.53125 C 190.917969 279.1875 190.835938 279.847656 190.75 280.527344 C 190.667969 280.527344 190.585938 280.527344 190.5 280.527344 C 190.527344 279.308594 190.566406 278.511719 191.34375 277.53125 C 192.628906 276.550781 193.949219 276.734375 195.5 276.734375 Z M 195.5 276.734375 "/>
<path style=" stroke:none;fill-rule:nonzero;fill:rgb(96.862745%,78.823529%,76.862745%);fill-opacity:1;" d="M 191.25 277.53125 C 191.578125 277.613281 191.910156 277.695312 192.25 277.78125 C 191.90625 278.15625 191.90625 278.15625 191.5 278.53125 C 191.335938 278.53125 191.171875 278.53125 191 278.53125 C 190.917969 279.1875 190.835938 279.847656 190.75 280.527344 C 190.667969 280.527344 190.585938 280.527344 190.5 280.527344 C 190.527344 280.167969 190.558594 279.808594 190.59375 279.449219 C 190.609375 279.25 190.628906 279.050781 190.648438 278.84375 C 190.75 278.28125 190.75 278.28125 191.25 277.53125 Z M 191.25 277.53125 "/>
<path style=" stroke:none;fill-rule:nonzero;fill:rgb(94.117647%,58.431373%,54.901961%);fill-opacity:1;" d="M 55.5 247.054688 C 55.664062 247.136719 55.828125 247.21875 56 247.304688 C 55.769531 247.59375 55.53125 247.878906 55.296875 248.164062 C 55.101562 248.402344 55.101562 248.402344 54.902344 248.644531 C 54.5 249.054688 54.5 249.054688 53.75 249.304688 C 54.140625 248.347656 54.757812 247.757812 55.5 247.054688 Z M 55.5 247.054688 "/>
<path style=" stroke:none;fill-rule:nonzero;fill:rgb(94.901961%,64.313725%,61.176471%);fill-opacity:1;" d="M 97 67.445312 C 97.164062 67.527344 97.328125 67.613281 97.5 67.695312 C 97.417969 67.851562 97.335938 68.003906 97.25 68.164062 C 96.964844 68.671875 96.964844 68.671875 97 69.195312 C 96.382812 68.949219 96.382812 68.949219 95.75 68.695312 C 95.75 68.53125 95.75 68.367188 95.75 68.195312 C 96.34375 67.773438 96.34375 67.773438 97 67.445312 Z M 97 67.445312 "/>
</g>
</svg>
